<?xml version="1.0" encoding="utf-8"?>
<!-- Generator: Adobe Illustrator 21.0.2, SVG Export Plug-In . SVG Version: 6.00 Build 0)  -->
<svg version="1.1" id="Layer_1" xmlns="http://www.w3.org/2000/svg" xmlns:xlink="http://www.w3.org/1999/xlink" x="0px" y="0px"
	 width="400px" height="300px" viewBox="0 0 400 300" style="enable-background:new 0 0 400 300;" xml:space="preserve">
<style type="text/css">
	.st0{fill:#85D0BC;}
	.st1{opacity:0.35;}
	.st2{fill:#FFFFFF;}
	.st3{fill:#282B24;}
	.st4{fill:#231F20;}
	.st5{fill:#F9CB99;}
	.st6{fill:#FFA99F;}
	.st7{fill:#F0EFDA;}
	.st8{opacity:0.5;}
</style>
<g id="gummy_bear">
	<g>
		<g>
			<path class="st0" d="M106.332,206.205c0-1.889-0.518-3.653-1.407-5.173c0.012-0.02,0.027-0.038,0.038-0.059
				c0.261-0.462,0.41-0.996,0.41-1.565c0-1.334-0.823-2.468-1.986-2.945c0.151-0.59,0.24-1.205,0.24-1.842
				c0-0.972-0.193-1.898-0.533-2.749c0.791-0.526,1.323-1.413,1.323-2.436c0-1.625-1.318-2.943-2.943-2.943
				c-1.01,0-1.899,0.509-2.429,1.284c-0.171-0.07-0.345-0.133-0.522-0.191c-0.795-0.29-1.649-0.455-2.545-0.455
				c-0.985,0-1.927,0.192-2.788,0.539c-0.537-0.715-1.392-1.177-2.354-1.177c-1.625,0-2.943,1.318-2.943,2.943
				c0,0.962,0.462,1.817,1.177,2.354c-0.347,0.861-0.539,1.803-0.539,2.788c0,0.635,0.076,1.227,0.22,1.776l0.285,0
				c0.004,0.016,0.008,0.031,0.012,0.046l-0.297-0.047c-1.31,0.396-2.263,1.613-2.263,3.054c0,0.604,0.168,1.168,0.458,1.649
				c0.037,0.06,0.08,0.116,0.121,0.174c-0.818,1.474-1.286,3.169-1.286,4.974c0,1.949,0.552,3.764,1.494,5.317l-0.117,0.024
				c-0.689,0.626-1.121,1.527-1.121,2.53c0,1.888,1.529,3.418,3.417,3.418c1.245,0,2.333-0.665,2.931-1.659
				c0.007-0.011,0.011-0.023,0.018-0.034c1.137,0.434,2.366,0.681,3.655,0.681c1.299,0,2.538-0.251,3.682-0.691
				c0.592,1.018,1.694,1.703,2.957,1.703c1.887,0,3.417-1.529,3.417-3.418c0-1.055-0.479-1.996-1.231-2.624
				C105.796,209.915,106.332,208.125,106.332,206.205z"/>
		</g>
	</g>
	<g class="st1">
		<g>
			<path class="st2" d="M101.93,186.54c-0.149-0.027-0.3-0.046-0.456-0.046c-0.228,0-0.447,0.032-0.659,0.083
				c-0.099,0.023-0.19,0.06-0.285,0.092c-0.099,0.035-0.197,0.069-0.291,0.114c-0.124,0.058-0.239,0.125-0.352,0.199
				c-0.045,0.03-0.088,0.061-0.131,0.093c-0.132,0.096-0.256,0.197-0.37,0.313l0,0l0,0c-0.121,0.124-0.244,0.247-0.342,0.391
				c-0.171-0.07-0.345-0.133-0.522-0.191c-0.795-0.29-1.649-0.455-2.545-0.455c-0.276,0-0.548,0.019-0.816,0.048
				c-0.013,0.002-0.027,0.004-0.04,0.006c-0.675,0.077-1.324,0.24-1.932,0.485c-0.424-0.565-1.05-0.961-1.768-1.107
				c-0.19-0.041-0.384-0.07-0.587-0.07c-1.625,0-2.943,1.318-2.943,2.943c0,0.202,0.029,0.396,0.07,0.586
				c0.146,0.717,0.542,1.344,1.107,1.768c-0.347,0.861-0.539,1.803-0.539,2.788c0,0.635,0.076,1.227,0.22,1.776l0.285,0
				c0.004,0.016,0.008,0.031,0.012,0.046l-0.297-0.047c-1.31,0.396-2.263,1.613-2.263,3.054c0,0.604,0.168,1.168,0.458,1.649
				c0.037,0.06,0.08,0.116,0.121,0.174c-0.818,1.474-1.286,3.169-1.286,4.974c0,1.949,0.552,3.764,1.494,5.317l-0.117,0.024
				c-0.689,0.626-1.121,1.527-1.121,2.53c0,1.888,1.529,3.418,3.417,3.418c0.258,0,0.507-0.035,0.748-0.089
				c-1.524-0.343-2.665-1.7-2.665-3.329c0-1.003,0.432-1.905,1.121-2.53l0.117-0.024c-0.942-1.553-1.494-3.368-1.494-5.317
				c0-1.805,0.978-2.702,1.795-4.176c-0.118-0.065-0.63-0.972-0.63-0.972c-0.29-0.482-0.458-1.046-0.458-1.649
				c0-1.441,0.722-2.081,2.032-2.477c-0.144-0.548-0.25-1.756-0.25-2.391c0-0.985,0.453-1.888,0.8-2.75
				c-0.715-0.537-1.177-1.392-1.177-2.354c0-0.652,0.835-1.443,1.443-1.443c0.962,0,1.817,0.462,2.354,1.177
				c0.861-0.347,1.803-0.539,2.788-0.539c0.895,0,1.75,0.165,2.545,0.455c0.177,0.058,0.352,0.121,0.522,0.191
				c0.531-0.775,1.419-1.284,2.429-1.284c1.369,0,2.509,0.939,2.838,2.204c0.067-0.243,0.105-0.497,0.105-0.761
				C104.417,187.968,103.337,186.761,101.93,186.54z"/>
		</g>
	</g>
	<g>
		<g>
			<g>
				<path class="st3" d="M103.18,196.876c-0.046,0-0.092-0.006-0.139-0.02c-0.265-0.076-0.418-0.354-0.342-0.618
					c0.149-0.521,0.225-1.078,0.225-1.659c0-0.836-0.146-1.652-0.435-2.427c-0.085-0.229,0.006-0.484,0.216-0.606
					c0.747-0.436,1.211-1.244,1.211-2.109c0-1.347-1.096-2.442-2.443-2.442c-0.811,0-1.567,0.401-2.024,1.074
					c-0.136,0.201-0.399,0.271-0.619,0.175c-1.712-0.771-3.714-0.812-5.454-0.108c-0.208,0.083-0.451,0.018-0.587-0.164
					c-0.466-0.62-1.178-0.977-1.954-0.977c-1.347,0-2.443,1.096-2.443,2.442c0,0.775,0.356,1.488,0.978,1.955
					c0.181,0.136,0.248,0.376,0.164,0.586c-0.334,0.828-0.503,1.703-0.503,2.602c0,0.578,0.068,1.133,0.204,1.648
					c0.07,0.268-0.09,0.541-0.357,0.61c-0.266,0.072-0.54-0.089-0.61-0.356c-0.156-0.6-0.236-1.239-0.236-1.902
					c0-0.904,0.15-1.788,0.447-2.634c-0.694-0.648-1.085-1.544-1.085-2.509c0-1.898,1.545-3.442,3.443-3.442
					c0.965,0,1.86,0.391,2.509,1.084c1.78-0.623,3.778-0.589,5.532,0.099c0.65-0.747,1.595-1.183,2.598-1.183
					c1.898,0,3.443,1.544,3.443,3.442c0,1.08-0.513,2.097-1.362,2.742c0.245,0.773,0.369,1.579,0.369,2.4
					c0,0.675-0.089,1.325-0.264,1.935C103.597,196.734,103.397,196.876,103.18,196.876z"/>
			</g>
		</g>
		<g>
			<g>
				<path class="st3" d="M89.678,203.1c-1.304,0-2.486-0.667-3.162-1.783c-0.347-0.576-0.53-1.236-0.53-1.908
					c0-1.639,1.052-3.059,2.618-3.532c0.265-0.08,0.543,0.068,0.624,0.334c0.08,0.264-0.069,0.543-0.333,0.623
					c-1.142,0.346-1.908,1.38-1.908,2.575c0,0.49,0.133,0.972,0.386,1.392c0.492,0.813,1.354,1.3,2.305,1.3
					c1.126,0,2.142-0.71,2.529-1.768c0.108-0.295,0.163-0.605,0.163-0.924c0-0.882-0.433-1.709-1.159-2.212
					c-0.227-0.158-0.283-0.47-0.125-0.696s0.469-0.281,0.696-0.126c0.995,0.69,1.588,1.825,1.588,3.034
					c0,0.436-0.075,0.862-0.223,1.268C92.616,202.126,91.222,203.1,89.678,203.1z"/>
			</g>
		</g>
		<g>
			<g>
				<path class="st3" d="M89.452,217.994c-2.16,0-3.917-1.758-3.917-3.918c0-1.103,0.468-2.16,1.285-2.9
					c0.205-0.186,0.521-0.17,0.707,0.034c0.186,0.205,0.17,0.521-0.035,0.706c-0.608,0.552-0.957,1.339-0.957,2.16
					c0,1.609,1.308,2.918,2.917,2.918c1.033,0,1.969-0.529,2.502-1.417c0.272-0.451,0.416-0.97,0.416-1.501
					c0-1.245-0.791-2.354-1.967-2.759c-0.261-0.09-0.399-0.374-0.31-0.636c0.09-0.261,0.374-0.399,0.636-0.31
					c1.58,0.544,2.641,2.033,2.641,3.704c0,0.714-0.193,1.411-0.559,2.018C92.105,217.266,90.818,217.994,89.452,217.994z"/>
			</g>
		</g>
		<g>
			<g>
				<path class="st3" d="M102.695,217.994c-1.398,0-2.701-0.754-3.4-1.969c-0.339-0.593-0.518-1.267-0.518-1.949
					c0-1.64,1.034-3.118,2.574-3.68c0.259-0.093,0.547,0.039,0.641,0.299c0.095,0.259-0.039,0.546-0.298,0.641
					c-1.146,0.418-1.917,1.52-1.917,2.74c0,0.509,0.133,1.011,0.386,1.452c0.52,0.903,1.49,1.466,2.532,1.466
					c1.608,0,2.917-1.309,2.917-2.918c0-0.874-0.388-1.695-1.064-2.253c-0.213-0.176-0.243-0.491-0.067-0.704
					s0.491-0.244,0.704-0.067c0.907,0.749,1.428,1.851,1.428,3.024C106.611,216.237,104.854,217.994,102.695,217.994z"/>
			</g>
		</g>
		<g>
			<g>
				<path class="st3" d="M102.181,203.1c-1.567,0-2.968-0.994-3.485-2.474c-0.137-0.389-0.206-0.799-0.206-1.218
					c0-1.231,0.611-2.377,1.634-3.064c0.229-0.155,0.54-0.093,0.694,0.136c0.154,0.229,0.093,0.54-0.136,0.694
					c-0.746,0.501-1.191,1.337-1.191,2.234c0,0.306,0.05,0.604,0.15,0.887c0.377,1.08,1.398,1.805,2.542,1.805
					c0.97,0,1.87-0.526,2.347-1.372c0.226-0.4,0.345-0.856,0.345-1.319c0-1.166-0.743-2.193-1.85-2.558
					c-0.262-0.086-0.405-0.368-0.319-0.631c0.086-0.262,0.369-0.407,0.631-0.318c1.518,0.499,2.537,1.908,2.537,3.507
					c0,0.635-0.164,1.261-0.474,1.811C104.745,202.379,103.511,203.1,102.181,203.1z"/>
			</g>
		</g>
		<g>
			<g>
				<path class="st3" d="M96.225,197.249c-1.691,0-3.067-1.179-3.067-2.628s1.376-2.628,3.067-2.628s3.067,1.179,3.067,2.628
					S97.916,197.249,96.225,197.249z M96.225,192.993c-1.14,0-2.067,0.73-2.067,1.628s0.927,1.628,2.067,1.628
					s2.067-0.73,2.067-1.628S97.365,192.993,96.225,192.993z"/>
			</g>
		</g>
		<g>
			<g>
				<g>
					<path class="st3" d="M94.747,192.884c-0.01,0-0.01,0-0.02,0.01c0,0,0.93,1.42,1.49,1.41c0.6,0,1.47-1.43,1.47-1.43
						c-0.01-0.01-0.01-0.01-0.02-0.02L94.747,192.884z"/>
				</g>
			</g>
			<g>
				<g>
					<circle class="st4" cx="97.893" cy="190.73" r="0.5"/>
				</g>
			</g>
			<g>
				<g>
					<circle class="st4" cx="94.557" cy="190.73" r="0.5"/>
				</g>
			</g>
			<g>
				<g>
					<path class="st3" d="M87.157,212.046c-0.168,0-0.332-0.084-0.426-0.237c-1.052-1.706-1.608-3.673-1.608-5.687
						c0-1.862,0.479-3.698,1.386-5.31c0.135-0.241,0.438-0.328,0.681-0.19c0.241,0.135,0.326,0.44,0.19,0.681
						c-0.822,1.462-1.257,3.129-1.257,4.819c0,1.829,0.504,3.613,1.459,5.161c0.145,0.235,0.072,0.543-0.163,0.688
						C87.337,212.022,87.246,212.046,87.157,212.046z"/>
				</g>
			</g>
			<g>
				<g>
					<path class="st3" d="M104.865,211.938c-0.087,0-0.176-0.022-0.256-0.071c-0.237-0.142-0.314-0.449-0.172-0.686
						c0.913-1.523,1.396-3.272,1.396-5.059c0-1.721-0.45-3.415-1.302-4.9c-0.138-0.239-0.055-0.545,0.185-0.683
						c0.239-0.137,0.545-0.056,0.683,0.185c0.939,1.637,1.435,3.503,1.435,5.398c0,1.967-0.532,3.894-1.538,5.572
						C105.2,211.851,105.035,211.938,104.865,211.938z"/>
				</g>
			</g>
			<g>
				<g>
					<path class="st0" d="M99.512,215.325c0.061,0.157,0.134,0.308,0.216,0.452c-1.164,0.452-2.428,0.701-3.751,0.701
						c-1.265,0-2.475-0.226-3.595-0.642"/>
				</g>
				<g>
					<path class="st3" d="M95.977,216.978c-1.297,0-2.565-0.227-3.77-0.674c-0.259-0.096-0.391-0.384-0.294-0.643
						c0.096-0.26,0.383-0.393,0.643-0.295c2.065,0.767,4.396,0.81,6.484,0.126c-0.09-0.255,0.037-0.536,0.29-0.634
						c0.257-0.103,0.547,0.027,0.647,0.285c0.052,0.134,0.114,0.262,0.184,0.385c0.072,0.126,0.086,0.278,0.037,0.415
						c-0.048,0.137-0.154,0.246-0.29,0.299C98.657,216.731,97.334,216.978,95.977,216.978z"/>
				</g>
			</g>
			<g>
				<g>
					<path class="st3" d="M90.477,190.639c-0.011,0-0.021,0-0.032-0.001c-0.275-0.018-0.485-0.255-0.467-0.53
						c0.037-0.587,0.495-1.46,1.604-1.46c0.276,0,0.5,0.224,0.5,0.5s-0.224,0.5-0.5,0.5c-0.545,0-0.601,0.436-0.606,0.522
						C90.958,190.436,90.739,190.639,90.477,190.639z"/>
				</g>
			</g>
			<g>
				<g>
					<path class="st3" d="M101.986,190.639c-0.26,0-0.479-0.201-0.498-0.463c-0.015-0.16-0.104-0.528-0.607-0.528
						c-0.276,0-0.5-0.224-0.5-0.5s0.224-0.5,0.5-0.5c1.109,0,1.567,0.873,1.604,1.46c0.018,0.275-0.192,0.513-0.467,0.53
						C102.007,190.639,101.996,190.639,101.986,190.639z"/>
				</g>
			</g>
		</g>
	</g>
</g>
<g id="ice_cream2">
	<g>
		<g>
			<path class="st5" d="M304.987,105.463v7.01c0,0.564-0.457,1.021-1.021,1.021s-1.021-0.457-1.021-1.021v-7.01"/>
		</g>
		<path class="st3" d="M303.966,113.994c-0.839,0-1.521-0.682-1.521-1.521v-7.01c0-0.276,0.224-0.5,0.5-0.5s0.5,0.224,0.5,0.5v7.01
			c0,0.287,0.233,0.521,0.521,0.521s0.521-0.234,0.521-0.521v-7.01c0-0.276,0.224-0.5,0.5-0.5s0.5,0.224,0.5,0.5v7.01
			C305.487,113.312,304.805,113.994,303.966,113.994z"/>
	</g>
	<path class="st0" d="M303.977,82.494L303.977,82.494c-3.646,0-6.602,2.956-6.602,6.602v16.334h13.203V89.095
		C310.579,85.45,307.623,82.494,303.977,82.494z"/>
	<g class="st1">
		<g>
			<path class="st2" d="M298.876,90.595c0-3.646,2.956-6.602,6.602-6.602c1.44,0,2.768,0.466,3.853,1.249
				c-1.199-1.662-3.147-2.749-5.353-2.749c-3.646,0-6.602,2.956-6.602,6.602v16.334h1.5V90.595z"/>
		</g>
	</g>
	<g>
		<g>
			<path class="st3" d="M310.579,105.929h-13.203c-0.276,0-0.5-0.224-0.5-0.5V89.095c0-3.916,3.186-7.102,7.102-7.102
				s7.102,3.186,7.102,7.102v16.333C311.079,105.705,310.855,105.929,310.579,105.929z M297.876,104.929h12.203V89.095
				c0-3.364-2.737-6.102-6.102-6.102s-6.102,2.737-6.102,6.102V104.929z"/>
		</g>
	</g>
	<g>
		<g>
			<path class="st3" d="M301.621,102.162L301.621,102.162c-0.275,0-0.5-0.225-0.5-0.5V88.711c0-0.275,0.225-0.5,0.5-0.5l0,0
				c0.275,0,0.5,0.225,0.5,0.5v12.952C302.121,101.937,301.896,102.162,301.621,102.162z"/>
		</g>
	</g>
	<g>
		<g>
			<path class="st3" d="M306.312,102.162L306.312,102.162c-0.275,0-0.5-0.225-0.5-0.5V88.711c0-0.275,0.225-0.5,0.5-0.5l0,0
				c0.275,0,0.5,0.225,0.5,0.5v12.952C306.812,101.937,306.587,102.162,306.312,102.162z"/>
		</g>
	</g>
</g>
<g id="candy2">
	<g>
		<g>
			<g>
				<circle class="st6" cx="303.822" cy="201.994" r="7.984"/>
			</g>
		</g>
		<g>
			<g>
				<circle class="st7" cx="303.822" cy="201.994" r="5.2"/>
			</g>
		</g>
		<g>
			<g>
				<circle class="st6" cx="303.822" cy="201.994" r="2.177"/>
			</g>
		</g>
		<g>
			<g>
				<path class="st6" d="M295.838,202.135c0,0-3.938-3.536-5.576-3.536c-1.662,0-1.686,2.346,0,2.346c-2.444,0-2.315,2.37,0,2.37
					c-1.686,0-1.662,2.322,0,2.322C291.942,205.637,295.838,202.135,295.838,202.135z"/>
			</g>
		</g>
		<g>
			<g>
				<path class="st6" d="M312.117,202.135c0,0,3.938-3.536,5.576-3.536c1.662,0,1.686,2.346,0,2.346c2.444,0,2.315,2.37,0,2.37
					c1.686,0,1.662,2.322,0,2.322C316.012,205.637,312.117,202.135,312.117,202.135z"/>
			</g>
		</g>
	</g>
	<g id="light_11_" class="st1">
		<g>
			<g>
				<path class="st2" d="M290.05,202.385c0.094-0.391,0.919-2.23,2.107-2.23c0.943,0,2.253,1.117,3.531,2.112
					c0.093-0.081,0.15-0.132,0.15-0.132s-3.938-3.536-5.576-3.536c-1.662,0-1.686,2.346,0,2.346c-2.36,0-2.264,2.356-0.223,2.356
					C290.039,203.301,289.957,202.775,290.05,202.385z"/>
			</g>
		</g>
		<g>
			<g>
				<path class="st2" d="M290.018,203.36c-1.414,0.229-1.325,2.277,0.245,2.277c0.096,0,0.202-0.014,0.312-0.036
					C289.738,205.072,289.824,204.028,290.018,203.36z"/>
			</g>
		</g>
	</g>
	<g id="light_10_" class="st1">
		<g>
			<path class="st2" d="M297.338,203.494c0-4.41,3.575-7.984,7.984-7.984c1.822,0,3.496,0.617,4.84,1.645
				c-1.459-1.908-3.752-3.145-6.34-3.145c-4.41,0-7.984,3.575-7.984,7.984c0,2.588,1.236,4.881,3.145,6.34
				C297.955,206.99,297.338,205.316,297.338,203.494z"/>
		</g>
	</g>
	<g>
		<g>
			<g>
				<path class="st3" d="M317.692,206.137c-1.819,0-5.496-3.259-5.909-3.63c-0.105-0.095-0.166-0.23-0.166-0.372
					s0.061-0.277,0.166-0.372c0.418-0.375,4.131-3.664,5.909-3.664c1.152,0,1.756,0.845,1.756,1.68c0,0.366-0.113,0.712-0.321,0.993
					c0.072,0.041,0.142,0.085,0.206,0.133c0.409,0.301,0.645,0.739,0.645,1.202c0,0.518-0.291,1.038-0.857,1.366
					c0.217,0.29,0.328,0.645,0.328,0.997C319.448,205.298,318.845,206.137,317.692,206.137z M312.875,202.135
					c1.506,1.291,3.833,3.002,4.817,3.002c0.558,0,0.756-0.359,0.756-0.667c0-0.302-0.198-0.654-0.756-0.654
					c-0.276,0-0.5-0.224-0.5-0.5s0.224-0.5,0.5-0.5c0.835,0,1.285-0.365,1.285-0.709c0-0.146-0.082-0.283-0.237-0.396
					c-0.231-0.171-0.604-0.265-1.048-0.265c-0.276,0-0.5-0.224-0.5-0.5s0.224-0.5,0.5-0.5c0.558,0,0.756-0.345,0.756-0.667
					c0-0.313-0.198-0.68-0.756-0.68C316.733,199.099,314.394,200.83,312.875,202.135z"/>
			</g>
		</g>
		<g>
			<g>
				<path class="st3" d="M290.263,206.137c-1.152,0-1.756-0.839-1.756-1.667c0-0.367,0.116-0.715,0.329-0.996
					c-0.567-0.328-0.858-0.85-0.858-1.367c0-0.464,0.234-0.901,0.645-1.203c0.064-0.047,0.133-0.091,0.205-0.131
					c-0.212-0.29-0.32-0.644-0.32-0.994c0-0.835,0.604-1.68,1.756-1.68c1.777,0,5.491,3.289,5.909,3.664
					c0.105,0.095,0.166,0.23,0.166,0.372s-0.061,0.277-0.166,0.372C295.759,202.878,292.082,206.137,290.263,206.137z
					 M290.263,203.816c-0.558,0-0.756,0.353-0.756,0.654c0,0.308,0.198,0.667,0.756,0.667c0.985,0,3.312-1.711,4.817-3.002
					c-1.521-1.305-3.86-3.036-4.817-3.036c-0.558,0-0.756,0.366-0.756,0.68c0,0.322,0.198,0.667,0.756,0.667
					c0.276,0,0.5,0.224,0.5,0.5s-0.224,0.5-0.5,0.5c-0.444,0-0.816,0.094-1.049,0.265c-0.154,0.113-0.236,0.251-0.236,0.396
					c0,0.344,0.45,0.709,1.285,0.709c0.276,0,0.5,0.224,0.5,0.5S290.539,203.816,290.263,203.816z"/>
			</g>
		</g>
		<g>
			<g>
				<path class="st3" d="M303.822,210.479c-4.679,0-8.484-3.806-8.484-8.484s3.806-8.485,8.484-8.485s8.484,3.807,8.484,8.485
					S308.501,210.479,303.822,210.479z M303.822,194.509c-4.127,0-7.484,3.358-7.484,7.485s3.357,7.484,7.484,7.484
					s7.484-3.357,7.484-7.484S307.949,194.509,303.822,194.509z"/>
			</g>
		</g>
		<g>
			<g>
				<path class="st3" d="M303.822,207.695c-3.144,0-5.7-2.557-5.7-5.7s2.557-5.7,5.7-5.7s5.7,2.557,5.7,5.7
					S306.966,207.695,303.822,207.695z M303.822,197.294c-2.592,0-4.7,2.108-4.7,4.7s2.108,4.7,4.7,4.7s4.7-2.108,4.7-4.7
					S306.414,197.294,303.822,197.294z"/>
			</g>
		</g>
		<g>
			<g>
				<path class="st3" d="M303.822,204.67c-1.476,0-2.677-1.2-2.677-2.676s1.201-2.677,2.677-2.677s2.677,1.201,2.677,2.677
					S305.298,204.67,303.822,204.67z M303.822,200.318c-0.925,0-1.677,0.752-1.677,1.677c0,0.924,0.752,1.676,1.677,1.676
					s1.677-0.752,1.677-1.676C305.499,201.07,304.747,200.318,303.822,200.318z"/>
			</g>
		</g>
	</g>
</g>
<g id="lollipop">
	<g>
		<g>
			<circle class="st6" cx="199.977" cy="193.23" r="6.736"/>
		</g>
	</g>
	<g id="light_13_" class="st1">
		<g>
			<path class="st2" d="M194.741,194.73c0-3.72,3.016-6.736,6.736-6.736c1.477,0,2.839,0.481,3.949,1.287
				c-1.224-1.686-3.206-2.787-5.449-2.787c-3.72,0-6.736,3.016-6.736,6.736c0,2.243,1.101,4.225,2.787,5.449
				C195.222,197.569,194.741,196.207,194.741,194.73z"/>
		</g>
	</g>
	<g>
		<g>
			<g>
				<path class="st3" d="M199.179,198.035c-2.982,0-5.408-2.426-5.408-5.408c0-3.594,2.812-6.505,6.401-6.629
					c0.268-0.006,0.507,0.207,0.517,0.482c0.01,0.276-0.207,0.508-0.482,0.518c-3.048,0.104-5.435,2.577-5.435,5.629
					c0,2.431,1.978,4.408,4.408,4.408c1.889,0,3.425-1.537,3.425-3.427c0-1.455-1.185-2.64-2.64-2.64
					c-1.11,0-2.013,0.903-2.013,2.013c0,0.832,0.678,1.51,1.511,1.51c0.611,0,1.108-0.497,1.108-1.108c0-0.577-0.32-0.651-0.6-0.651
					c0.276,0,0.5,0.238,0.5,0.515s-0.224,0.515-0.5,0.515c-0.307,0-0.583-0.111-0.778-0.314c-0.18-0.187-0.278-0.436-0.278-0.699
					c0-0.492,0.37-1.016,1.056-1.016c0.972,0,1.6,0.648,1.6,1.651c0,1.162-0.946,2.108-2.108,2.108c-1.384,0-2.511-1.126-2.511-2.51
					c0-1.661,1.352-3.013,3.013-3.013c2.007,0,3.64,1.633,3.64,3.64C203.604,196.05,201.619,198.035,199.179,198.035z"/>
			</g>
		</g>
		<g>
			<g>
				<path class="st3" d="M199.977,200.466c-3.99,0-7.236-3.246-7.236-7.236c0-3.989,3.246-7.235,7.236-7.235
					c3.99,0,7.235,3.246,7.235,7.235C207.213,197.22,203.967,200.466,199.977,200.466z M199.977,186.994
					c-3.438,0-6.236,2.797-6.236,6.235s2.798,6.236,6.236,6.236c3.438,0,6.235-2.798,6.235-6.236S203.415,186.994,199.977,186.994z"
					/>
			</g>
		</g>
		<g>
			<g>
				<path class="st3" d="M199.977,217.994c-0.276,0-0.5-0.224-0.5-0.5v-17.528c0-0.276,0.224-0.5,0.5-0.5s0.5,0.224,0.5,0.5v17.528
					C200.477,217.771,200.254,217.994,199.977,217.994z"/>
			</g>
		</g>
	</g>
</g>
<g id="cookie_3_">
	<g>
		<g>
			<circle class="st5" cx="147.977" cy="201.994" r="10.5"/>
		</g>
	</g>
	<g id="light_14_" class="st1">
		<g>
			<path class="st2" d="M138.977,203.494c0-5.799,4.701-10.5,10.5-10.5c2.517,0,4.826,0.888,6.635,2.365
				c-1.925-2.358-4.853-3.865-8.135-3.865c-5.799,0-10.5,4.701-10.5,10.5c0,3.282,1.507,6.21,3.865,8.135
				C139.865,208.32,138.977,206.011,138.977,203.494z"/>
		</g>
	</g>
	<g>
		<g>
			<path class="st3" d="M147.977,212.994c-6.065,0-11-4.935-11-11s4.935-11,11-11s11,4.935,11,11S154.043,212.994,147.977,212.994z
				 M147.977,191.994c-5.514,0-10,4.486-10,10s4.486,10,10,10s10-4.486,10-10S153.492,191.994,147.977,191.994z"/>
		</g>
	</g>
	<g>
		<g>
			<g>
				<circle class="st4" cx="149.198" cy="196.434" r="0.868"/>
			</g>
		</g>
		<g>
			<g>
				<circle class="st7" cx="152.838" cy="201.165" r="0.656"/>
			</g>
			<g>
				<path class="st3" d="M152.838,202.321c-0.638,0-1.156-0.519-1.156-1.156s0.519-1.156,1.156-1.156s1.156,0.519,1.156,1.156
					S153.476,202.321,152.838,202.321z M152.838,201.008c-0.086,0-0.156,0.07-0.156,0.156c0,0.172,0.312,0.172,0.312,0
					C152.995,201.078,152.924,201.008,152.838,201.008z"/>
			</g>
		</g>
		<g>
			<g>
				<circle class="st4" cx="149.708" cy="207.189" r="0.492"/>
			</g>
		</g>
		<g>
			<g>
				<circle class="st4" cx="141.999" cy="200.508" r="0.868"/>
			</g>
		</g>
		<g>
			<g>
				<path class="st3" d="M142.701,208.063c-0.547,0-0.992-0.445-0.992-0.992s0.445-0.992,0.992-0.992s0.992,0.445,0.992,0.992
					S143.248,208.063,142.701,208.063z M142.693,207.071c0,0.004,0.003,0.008,0.008,0.008l0.492-0.008H142.693z"/>
			</g>
		</g>
		<g>
			<g>
				<circle class="st4" cx="146.638" cy="205.102" r="0.656"/>
			</g>
		</g>
		<g>
			<g>
				<circle class="st7" cx="147.951" cy="200.508" r="0.868"/>
			</g>
			<g>
				<path class="st3" d="M147.951,201.876c-0.755,0-1.369-0.613-1.369-1.368s0.614-1.369,1.369-1.369
					c0.754,0,1.368,0.614,1.368,1.369S148.705,201.876,147.951,201.876z M147.951,200.139c-0.203,0-0.369,0.166-0.369,0.369
					s0.166,0.368,0.369,0.368s0.368-0.165,0.368-0.368S148.154,200.139,147.951,200.139z"/>
			</g>
		</g>
	</g>
</g>
<g id="cake">
	<g>
		<g>
			<g>
				<path class="st5" d="M261.04,214.698c0,1.544-4.058,2.796-9.062,2.796c-5.006,0-9.064-1.252-9.064-2.796
					c0-0.071,0.009-0.14,0.025-0.209V196.17c0.347,1.446,4.261,2.587,9.039,2.587c4.786,0,8.704-1.144,9.039-2.594v18.334
					C261.033,214.563,261.04,214.63,261.04,214.698z"/>
			</g>
		</g>
		<g>
			<g>
				<path class="st0" d="M261.04,195.961c0,0.068-0.007,0.135-0.024,0.202c-0.334,1.45-4.253,2.594-9.039,2.594
					c-1.934,0-3.727-0.187-5.198-0.504h-0.001c-2.163-0.469-3.633-1.222-3.84-2.083c-0.016-0.069-0.025-0.139-0.025-0.209
					c0-1.257,2.687-2.319,6.384-2.671c0.136,1.445,1.353,2.577,2.834,2.577c1.471,0,2.681-1.116,2.832-2.546
					C258.502,193.701,261.04,194.74,261.04,195.961z"/>
			</g>
		</g>
		<g class="st1">
			<g>
				<g>
					<path class="st2" d="M244.414,197.586c0-0.068,0.007-0.135,0.023-0.202c0.334-1.45,4.253-2.594,9.039-2.594
						c1.934,0,3.727,0.187,5.198,0.504h0.001c0.935,0.203,1.73,0.461,2.36,0.756c-0.002-0.058-0.007-0.116-0.021-0.173
						c-0.207-0.861-1.677-1.613-3.84-2.083h-0.001c-1.471-0.317-3.264-0.504-5.198-0.504c-4.786,0-8.704,1.144-9.039,2.594
						c-0.016,0.067-0.023,0.134-0.023,0.202c0,0.569,0.557,1.098,1.505,1.54C244.419,197.612,244.414,197.599,244.414,197.586z"/>
				</g>
			</g>
			<g>
				<g>
					<path class="st2" d="M254.429,197.909c0.114,0.266,0.199,0.547,0.227,0.848c0.275-0.026,0.542-0.057,0.805-0.091
						C255.179,198.341,254.83,198.079,254.429,197.909z"/>
				</g>
			</g>
		</g>
		<g>
			<g>
				<path class="st7" d="M242.939,201.344c1.163,1.153,4.767,1.993,9.033,1.993c4.284,0,7.898-0.847,9.045-2.008v2.662
					c-0.625,0.634-1.987,1.175-3.791,1.535c-0.001,0-0.001,0-0.002,0c-1.499,0.298-3.308,0.473-5.251,0.473
					c-4.266,0-7.87-0.841-9.033-1.993V201.344z"/>
			</g>
		</g>
		<g>
			<g>
				<path class="st7" d="M261.017,211.297c-1.147,1.161-4.761,2.008-9.045,2.008c-4.266,0-7.87-0.841-9.033-1.993v-2.662
					c1.163,1.153,4.767,1.993,9.033,1.993c4.284,0,7.898-0.847,9.045-2.008V211.297z"/>
			</g>
		</g>
		<g>
			<g>
				<path class="st6" d="M254.98,193.019c0,0.102-0.005,0.203-0.016,0.302c-0.151,1.43-1.361,2.546-2.832,2.546
					c-1.481,0-2.698-1.132-2.834-2.577c-0.01-0.089-0.014-0.18-0.014-0.271c0-1.573,0.991-3.384,2.848-2.476
					C254.073,189.635,254.98,191.446,254.98,193.019z"/>
			</g>
		</g>
		<g>
			<g>
				<path class="st0" d="M255.733,186.591c0,0-1.163-0.316-2.131,0.189c-0.968,0.505-1.375,1.639-1.375,1.639
					s1.163,0.316,2.131-0.189C255.326,187.726,255.733,186.591,255.733,186.591z"/>
			</g>
		</g>
	</g>
	<g id="light_12_" class="st1">
		<g>
			<path class="st2" d="M250.285,194.147c0-0.102,0.005-0.203,0.016-0.302c0.151-1.43,1.361-2.546,2.832-2.546
				c0.526,0,1.014,0.148,1.437,0.396c-0.497-0.832-1.397-1.396-2.437-1.396c-1.471,0-2.681,1.116-2.832,2.546
				c-0.011,0.099-0.016,0.201-0.016,0.302c0,1.089,0.437,2.292,1.349,2.627C250.401,195.288,250.285,194.704,250.285,194.147z"/>
		</g>
	</g>
	<g>
		<g>
			<g>
				<path class="st3" d="M252.133,191.014c-0.276,0-0.5-0.224-0.5-0.5v-3.302c0-0.276,0.224-0.5,0.5-0.5s0.5,0.224,0.5,0.5v3.302
					C252.633,190.79,252.409,191.014,252.133,191.014z"/>
			</g>
		</g>
		<g>
			<g>
				<path class="st3" d="M253.069,189.017c-0.541,0-0.942-0.106-0.973-0.114c-0.135-0.036-0.248-0.127-0.312-0.251
					s-0.074-0.269-0.027-0.4c0.02-0.054,0.485-1.325,1.614-1.914c1.128-0.588,2.438-0.242,2.493-0.229
					c0.135,0.036,0.248,0.128,0.312,0.251c0.064,0.124,0.074,0.269,0.027,0.4c-0.02,0.054-0.486,1.325-1.614,1.914
					C254.075,188.943,253.523,189.017,253.069,189.017z M253.001,188.017c0.335-0.003,0.754-0.035,1.126-0.229
					c0.37-0.193,0.646-0.512,0.832-0.793c-0.335-0.003-0.754,0.036-1.125,0.229S253.187,187.736,253.001,188.017z"/>
			</g>
		</g>
		<g>
			<g>
				<path class="st3" d="M253.582,192.751c-0.245,0-0.46-0.182-0.494-0.432c-0.021-0.078-0.172-0.259-0.251-0.295
					c-0.25-0.114-0.364-0.41-0.252-0.66c0.111-0.252,0.404-0.366,0.653-0.256c0.399,0.175,0.784,0.667,0.84,1.074
					c0.038,0.273-0.153,0.526-0.427,0.563C253.628,192.749,253.605,192.751,253.582,192.751z"/>
			</g>
		</g>
		<g>
			<g>
				<path class="st3" d="M252.133,196.366c-1.737,0-3.17-1.303-3.332-3.03c-0.011-0.099-0.016-0.207-0.016-0.317
					c0-0.959,0.352-2.298,1.344-2.917c0.415-0.259,1.091-0.477,2.008-0.105c0.947-0.37,1.632-0.152,2.048,0.112
					c0.955,0.608,1.296,1.902,1.296,2.91c0,0.12-0.006,0.239-0.019,0.355C255.281,195.079,253.85,196.366,252.133,196.366z
					 M251.191,190.8c-0.195,0-0.373,0.05-0.533,0.15c-0.514,0.321-0.873,1.172-0.873,2.068c0,0.073,0.003,0.145,0.011,0.216
					c0.114,1.219,1.119,2.132,2.337,2.132c1.204,0,2.208-0.902,2.335-2.099c0.009-0.082,0.013-0.166,0.013-0.249
					c0-0.919-0.335-1.749-0.833-2.066c-0.34-0.215-0.776-0.201-1.303,0.043c-0.137,0.064-0.295,0.062-0.432-0.004
					C251.652,190.865,251.411,190.8,251.191,190.8z"/>
			</g>
		</g>
		<g>
			<g>
				<path class="st3" d="M251.972,213.805c-4.323,0-8.095-0.859-9.385-2.138c-0.094-0.095-0.147-0.222-0.147-0.355v-2.662
					c0-0.202,0.121-0.384,0.308-0.462c0.187-0.077,0.4-0.036,0.545,0.106c0.926,0.919,4.205,1.849,8.68,1.849
					c4.499,0,7.777-0.936,8.689-1.859c0.143-0.144,0.361-0.186,0.545-0.111c0.188,0.077,0.311,0.26,0.311,0.463v2.662
					c0,0.132-0.052,0.258-0.145,0.352C260.099,212.939,256.321,213.805,251.972,213.805z M243.439,211.088
					c1.093,0.873,4.271,1.717,8.532,1.717c4.288,0,7.466-0.85,8.545-1.729v-1.472c-1.717,0.94-4.935,1.538-8.545,1.538
					c-3.597,0-6.811-0.595-8.532-1.53V211.088z M261.017,211.297h0.01H261.017z"/>
			</g>
		</g>
		<g>
			<g>
				<path class="st3" d="M251.977,217.994c-4.752,0-9.563-1.132-9.563-3.296c0-0.087,0.009-0.175,0.025-0.263V196.17
					c0-0.254,0.189-0.467,0.441-0.496c0.247-0.038,0.485,0.133,0.545,0.38c0.216,0.899,3.385,2.202,8.552,2.202
					c5.18,0,8.344-1.305,8.552-2.206c0.057-0.247,0.278-0.412,0.544-0.385c0.253,0.029,0.443,0.243,0.443,0.497v18.28
					c0.016,0.082,0.023,0.166,0.023,0.256C261.54,216.863,256.729,217.994,251.977,217.994z M243.439,197.518v16.971
					c0,0.039-0.005,0.078-0.014,0.116c-0.012,1.03,3.324,2.39,8.552,2.39c5.227,0,8.562-1.359,8.562-2.296
					c0-0.031-0.003-0.058-0.009-0.081c-0.01-0.039-0.015-0.08-0.015-0.121v-16.979c-1.687,1.146-5.196,1.739-8.539,1.739
					C248.639,199.256,245.127,198.663,243.439,197.518z"/>
			</g>
		</g>
		<g>
			<g>
				<path class="st3" d="M251.972,206.5c-4.324,0-8.095-0.859-9.385-2.14c-0.095-0.094-0.147-0.222-0.147-0.354v-2.662
					c0-0.202,0.121-0.384,0.308-0.462c0.187-0.076,0.4-0.037,0.545,0.107c0.926,0.918,4.204,1.849,8.68,1.849
					c4.499,0,7.776-0.936,8.689-1.86c0.143-0.145,0.361-0.185,0.545-0.111c0.188,0.077,0.311,0.26,0.311,0.463v2.662
					c0,0.132-0.052,0.258-0.144,0.352c-0.879,0.891-2.688,1.401-4.05,1.674c-0.032,0.007-0.067,0.01-0.101,0.01
					C255.734,206.333,253.885,206.5,251.972,206.5z M243.439,203.782c1.092,0.874,4.27,1.718,8.532,1.718
					c1.849,0,3.631-0.16,5.153-0.464c0.032-0.007,0.067-0.01,0.101-0.01c1.479-0.305,2.688-0.76,3.291-1.256v-1.472
					c-1.718,0.941-4.935,1.539-8.545,1.539c-3.597,0-6.811-0.595-8.532-1.531V203.782z"/>
			</g>
		</g>
		<g>
			<g>
				<path class="st3" d="M251.977,199.256c-1.907,0-3.741-0.178-5.303-0.516c-1.749-0.378-3.9-1.111-4.222-2.454
					c-0.026-0.108-0.039-0.218-0.039-0.326c0-1.855,3.532-2.854,6.837-3.169c0.143-0.009,0.265,0.028,0.366,0.112
					c0.103,0.085,0.167,0.207,0.18,0.339c0.113,1.211,1.118,2.124,2.336,2.124c1.204,0,2.208-0.902,2.335-2.099
					c0.014-0.132,0.08-0.253,0.183-0.336c0.104-0.084,0.231-0.123,0.368-0.108c3.152,0.339,6.521,1.341,6.521,3.137
					c0,0.114-0.013,0.22-0.038,0.323C261.053,198.232,256.37,199.256,251.977,199.256z M248.886,193.835
					c-3.77,0.427-5.472,1.483-5.472,2.125c0.124,0.561,1.097,1.289,3.47,1.804c1.495,0.322,3.257,0.492,5.094,0.492
					c5.18,0,8.344-1.305,8.552-2.206l0.011-0.09c0-0.613-1.608-1.639-5.169-2.089c-0.379,1.452-1.692,2.495-3.238,2.495
					C250.567,196.366,249.249,195.309,248.886,193.835z"/>
			</g>
		</g>
	</g>
</g>
<g id="macaroon">
	<g>
		<g>
			<g>
				<path class="st6" d="M316.384,151.349h0.093c0,3.61-5.597,6.537-12.499,6.537c-6.903,0-12.499-2.926-12.499-6.537h0.088"/>
			</g>
		</g>
		<g>
			<g>
				<path class="st7" d="M292.516,149.933c0,0-0.274,0.811-0.274,2.279c2.631,1.74,22.248,1.404,23.544-0.261
					c0,0,0.477-1.106-0.624-2.018C313.123,151.661,294.201,152.372,292.516,149.933z"/>
			</g>
		</g>
		<g>
			<g>
				<path class="st6" d="M316.474,148.638c0,0.501-0.483,0.932-1.313,1.294c-0.424,0.185-0.94,0.353-1.527,0.501
					c-4.81,1.215-14.507,1.215-19.317,0c-0.588-0.148-1.103-0.316-1.527-0.501c-0.83-0.362-1.313-0.793-1.313-1.294
					c0-3.61,5.596-6.537,12.499-6.537C310.879,142.102,316.474,145.028,316.474,148.638z"/>
			</g>
		</g>
	</g>
	<g id="light_9_" class="st1">
		<g>
			<path class="st2" d="M305.476,143.602c4.226,0,7.955,1.1,10.217,2.779c-1.759-2.496-6.334-4.279-11.717-4.279
				c-6.903,0-12.499,2.926-12.499,6.537c0,0.501,0.483,0.932,1.313,1.294c0.06,0.026,0.136,0.05,0.2,0.075
				C293.124,146.459,298.657,143.602,305.476,143.602z"/>
		</g>
	</g>
	<g>
		<g>
			<g>
				<path class="st3" d="M303.978,158.386c-7.289,0-12.998-3.091-12.998-7.037c0-0.276,0.224-0.5,0.5-0.5s0.543,0.224,0.543,0.5
					c0,0.073-0.012,0.143-0.036,0.205c0.224,3.182,5.624,5.832,11.991,5.832c6.382,0,11.793-2.662,11.993-5.854
					c-0.026-0.057-0.041-0.119-0.041-0.183c0-0.276,0.177-0.5,0.453-0.5h0.094c0.276,0,0.5,0.224,0.5,0.5
					C316.977,155.295,311.267,158.386,303.978,158.386z"/>
			</g>
		</g>
		<g>
			<g>
				<path class="st3" d="M303.975,151.837c-3.68,0-7.358-0.306-9.78-0.918c-0.623-0.157-1.163-0.334-1.605-0.528
					c-1.069-0.466-1.612-1.056-1.612-1.752c0-3.946,5.709-7.037,12.998-7.037s12.999,3.091,12.999,7.037
					c0,0.697-0.543,1.287-1.614,1.753c-0.441,0.193-0.981,0.371-1.604,0.528C311.334,151.531,307.654,151.837,303.975,151.837z
					 M303.975,142.602c-6.504,0-11.998,2.765-11.998,6.037c0,0.247,0.379,0.56,1.013,0.836c0.393,0.172,0.88,0.332,1.449,0.475
					c4.725,1.193,14.348,1.193,19.072,0c0.569-0.143,1.057-0.303,1.449-0.475c0.635-0.276,1.014-0.589,1.014-0.836
					C315.975,145.366,310.479,142.602,303.975,142.602z"/>
			</g>
		</g>
		<g>
			<g>
				<g>
					<path class="st3" d="M303.975,154.183c-3.68,0-7.358-0.306-9.78-0.918c-1.716-0.434-2.721-0.987-3.075-1.691
						c-0.123-0.247-0.023-0.547,0.223-0.671c0.245-0.123,0.547-0.026,0.672,0.223c0.096,0.192,0.525,0.69,2.425,1.17
						c4.725,1.193,14.348,1.193,19.072,0c1.9-0.48,2.329-0.978,2.425-1.169c0.125-0.247,0.428-0.344,0.671-0.224
						c0.247,0.124,0.347,0.424,0.224,0.671c-0.353,0.705-1.358,1.258-3.075,1.692C311.334,153.877,307.654,154.183,303.975,154.183z
						"/>
				</g>
			</g>
			<g>
				<g>
					<path class="st3" d="M292.765,152.76c-0.128,0-0.256-0.049-0.354-0.146c-0.899-0.899-0.89-2.118,0.025-3.034
						c0.195-0.195,0.512-0.195,0.707,0c0.195,0.195,0.195,0.512,0,0.708c-0.247,0.248-0.745,0.901-0.025,1.62
						c0.195,0.195,0.195,0.512,0,0.707C293.02,152.711,292.892,152.76,292.765,152.76z"/>
				</g>
			</g>
			<g>
				<g>
					<path class="st3" d="M315.253,152.712c-0.128,0-0.256-0.049-0.354-0.146c-0.195-0.195-0.195-0.512,0-0.707
						c0.328-0.328,0.469-1.042,0.339-1.355c-0.029-0.07-0.042-0.07-0.077-0.07c-0.276,0-0.5-0.224-0.5-0.5s0.224-0.5,0.5-0.5
						c0.455,0,0.82,0.25,1.001,0.688c0.295,0.712,0.035,1.855-0.556,2.445C315.509,152.663,315.381,152.712,315.253,152.712z"/>
				</g>
			</g>
		</g>
	</g>
</g>
<g id="donut_1_">
	<g>
		<g>
			<g>
				<path class="st5" d="M251.977,137.494c-6.9,0-12.5,5.6-12.5,12.5c0,6.9,5.6,12.5,12.5,12.5c6.9,0,12.5-5.6,12.5-12.5
					C264.477,143.094,258.877,137.494,251.977,137.494z M251.977,153.924c-2.17,0-3.93-1.76-3.93-3.93c0-2.17,1.76-3.93,3.93-3.93
					c2.17,0,3.93,1.76,3.93,3.93C255.907,152.164,254.147,153.924,251.977,153.924z"/>
			</g>
		</g>
		<g id="light_8_" class="st1">
			<g>
				<g>
					<path class="st2" d="M242.007,151.494c0-6.9,4.478-11.72,11.378-11.72c3.068,0,5.968,0.331,8.144,2.168
						c-2.294-2.718-5.72-4.449-9.552-4.449c-6.9,0-12.5,5.6-12.5,12.5c0,3.832,1.731,7.258,4.449,9.552
						C242.088,157.37,242.007,154.562,242.007,151.494z"/>
				</g>
			</g>
		</g>
		<g>
			<g>
				<path class="st6" d="M262.567,145.604c-0.54-1.31-2.55-1.67-3.54-2.66c-0.99-0.99-1.35-3-2.66-3.54
					c-1.27-0.52-2.94,0.62-4.39,0.62c-1.45,0-3.12-1.14-4.39-0.62c-1.31,0.54-1.67,2.55-2.66,3.54c-0.99,0.99-3,1.35-3.54,2.66
					c-0.52,1.27,0.62,2.94,0.62,4.39s-1.14,3.12-0.62,4.39c0.54,1.31,2.55,1.67,3.54,2.66c0.99,0.99,1.35,3,2.66,3.54
					c1.27,0.52,2.94-0.62,4.39-0.62c1.45,0,3.12,1.14,4.39,0.62c1.31-0.54,1.67-2.55,2.66-3.54s3-1.35,3.54-2.66
					c0.52-1.27-0.62-2.94-0.62-4.39S263.087,146.874,262.567,145.604z M251.977,153.924c-2.17,0-3.93-1.76-3.93-3.93
					c0-2.17,1.76-3.93,3.93-3.93c2.17,0,3.93,1.76,3.93,3.93C255.907,152.164,254.147,153.924,251.977,153.924z"/>
			</g>
		</g>
		<g class="st1">
			<g>
				<path class="st2" d="M241.387,147.104c1.695-2.876,2.914-2.157,4.179-3.422c0.99-0.99,1.285-2.469,2.021-2.778
					c1.265-0.531,2.94,0.62,4.39,0.62c1.45,0,3.12-1.14,4.39-0.62c1.31,0.54,1.378,2.33,3.121,2.996
					c-0.178-0.471-0.229-0.666-0.461-0.956c-0.874-1.094-1.35-3-2.66-3.54c-1.27-0.52-2.94,0.62-4.39,0.62
					c-1.45,0-3.12-1.14-4.39-0.62c-1.31,0.54-1.67,2.55-2.66,3.54c-0.99,0.99-3,1.35-3.54,2.66
					c-0.199,0.485-0.154,1.029-0.024,1.597C241.373,147.169,241.369,147.133,241.387,147.104z"/>
			</g>
		</g>
	</g>
	<path class="st3" d="M251.977,162.994c-7.168,0-13-5.832-13-13c0-7.168,5.832-13,13-13s13,5.832,13,13
		C264.977,157.162,259.145,162.994,251.977,162.994z M251.977,137.994c-6.617,0-12,5.383-12,12c0,6.617,5.383,12,12,12
		s12-5.383,12-12C263.977,143.377,258.594,137.994,251.977,137.994z M251.977,154.424c-2.442,0-4.43-1.987-4.43-4.43
		c0-2.443,1.987-4.43,4.43-4.43s4.43,1.987,4.43,4.43C256.406,152.437,254.419,154.424,251.977,154.424z M251.977,146.564
		c-1.892,0-3.43,1.539-3.43,3.43s1.538,3.43,3.43,3.43s3.43-1.538,3.43-3.43S253.868,146.564,251.977,146.564z"/>
	<path class="st3" d="M248.331,161.22c-0.317,0-0.63-0.05-0.934-0.174c-0.95-0.392-1.442-1.33-1.919-2.237
		c-0.287-0.548-0.56-1.067-0.905-1.413s-0.864-0.617-1.412-0.905c-0.907-0.476-1.846-0.968-2.236-1.917
		c-0.375-0.914-0.072-1.908,0.221-2.87c0.186-0.611,0.361-1.189,0.361-1.71s-0.176-1.099-0.361-1.71
		c-0.293-0.962-0.596-1.957-0.222-2.869c0.392-0.95,1.33-1.442,2.237-1.918c0.548-0.288,1.066-0.56,1.412-0.905
		s0.618-0.864,0.905-1.413c0.477-0.907,0.969-1.845,1.918-2.236c0.913-0.375,1.907-0.073,2.869,0.221
		c0.585,0.178,1.189,0.361,1.711,0.361s1.126-0.184,1.711-0.361c0.961-0.292,1.954-0.593,2.868-0.221
		c0.951,0.392,1.443,1.331,1.92,2.238c0.287,0.548,0.56,1.066,0.904,1.412c0.346,0.346,0.864,0.617,1.412,0.905
		c0.907,0.476,1.846,0.968,2.236,1.917l0.001,0.001c0.374,0.913,0.071,1.907-0.222,2.869c-0.186,0.611-0.361,1.189-0.361,1.71
		s0.176,1.099,0.361,1.71c0.293,0.962,0.596,1.957,0.222,2.869c-0.392,0.95-1.33,1.442-2.237,1.918
		c-0.548,0.288-1.066,0.56-1.412,0.905c-0.345,0.346-0.617,0.863-0.904,1.412c-0.477,0.907-0.969,1.846-1.919,2.237
		c-0.914,0.374-1.908,0.072-2.869-0.221c-0.585-0.178-1.189-0.361-1.711-0.361s-1.126,0.184-1.711,0.361
		C249.624,161.021,248.968,161.22,248.331,161.22z M248.334,139.768c-0.2,0-0.388,0.029-0.558,0.099
		c-0.612,0.252-1.001,0.992-1.412,1.776c-0.31,0.59-0.631,1.201-1.084,1.655c-0.453,0.453-1.064,0.774-1.654,1.083
		c-0.784,0.411-1.524,0.8-1.777,1.413c-0.238,0.583,0,1.367,0.253,2.198c0.199,0.654,0.405,1.331,0.405,2.001
		s-0.206,1.347-0.405,2.001c-0.253,0.831-0.491,1.616-0.252,2.199c0.252,0.612,0.992,1.001,1.776,1.412
		c0.59,0.31,1.201,0.63,1.654,1.083c0.453,0.454,0.774,1.064,1.084,1.655c0.411,0.784,0.8,1.523,1.413,1.776
		c0.585,0.238,1.367,0,2.197-0.252c0.655-0.199,1.332-0.405,2.002-0.405s1.347,0.206,2.002,0.405
		c0.83,0.252,1.615,0.491,2.198,0.252c0.613-0.252,1.002-0.993,1.413-1.777c0.31-0.59,0.63-1.201,1.083-1.654
		s1.064-0.774,1.654-1.083c0.784-0.411,1.524-0.8,1.777-1.413c0.238-0.583,0-1.367-0.253-2.198
		c-0.199-0.654-0.405-1.331-0.405-2.001s0.206-1.347,0.405-2.001c0.253-0.831,0.491-1.616,0.252-2.199
		c-0.253-0.613-0.993-1.001-1.776-1.412c-0.59-0.31-1.201-0.63-1.654-1.083s-0.773-1.063-1.083-1.654
		c-0.411-0.784-0.8-1.524-1.414-1.777c-0.586-0.239-1.367,0-2.197,0.252c-0.655,0.199-1.332,0.405-2.002,0.405
		s-1.347-0.206-2.002-0.405C249.387,139.94,248.82,139.768,248.334,139.768z M251.976,154.424c-2.442,0-4.43-1.987-4.43-4.43
		s1.987-4.43,4.43-4.43s4.43,1.987,4.43,4.43S254.419,154.424,251.976,154.424z M251.976,146.564c-1.892,0-3.43,1.539-3.43,3.43
		s1.538,3.43,3.43,3.43s3.43-1.539,3.43-3.43S253.868,146.564,251.976,146.564z"/>
	<g>
		<g>
			<g>
				<path class="st3" d="M255.457,144.925c-0.24,0-0.452-0.173-0.492-0.418l-0.229-1.381c-0.045-0.272,0.139-0.53,0.411-0.575
					c0.276-0.048,0.53,0.139,0.575,0.412l0.229,1.381c0.045,0.272-0.139,0.53-0.411,0.575
					C255.512,144.923,255.484,144.925,255.457,144.925z"/>
			</g>
		</g>
		<g>
			<g>
				<path class="st3" d="M248.105,145.261c-0.075,0-0.15-0.017-0.222-0.052l-1.254-0.622c-0.248-0.123-0.349-0.422-0.227-0.67
					c0.124-0.248,0.425-0.348,0.67-0.226l1.254,0.622c0.248,0.123,0.349,0.422,0.227,0.67
					C248.466,145.159,248.289,145.261,248.105,145.261z"/>
			</g>
		</g>
		<g>
			<g>
				<path class="st3" d="M245.261,148.623c-0.018,0-0.036-0.001-0.054-0.003c-0.274-0.029-0.474-0.275-0.444-0.55l0.147-1.392
					c0.029-0.275,0.279-0.476,0.55-0.444c0.274,0.029,0.474,0.275,0.444,0.55l-0.147,1.392
					C245.729,148.432,245.513,148.623,245.261,148.623z"/>
			</g>
		</g>
		<g>
			<g>
				<path class="st3" d="M244.044,152.168c-0.178,0-0.351-0.096-0.44-0.264c-0.131-0.243-0.039-0.546,0.204-0.677l1.234-0.661
					c0.242-0.129,0.546-0.039,0.677,0.205c0.131,0.243,0.039,0.546-0.204,0.677l-1.234,0.661
					C244.205,152.149,244.124,152.168,244.044,152.168z"/>
			</g>
		</g>
		<g>
			<g>
				<path class="st3" d="M251.71,143.861c-0.063,0-0.128-0.012-0.19-0.038c-0.256-0.105-0.377-0.398-0.271-0.653l0.534-1.294
					c0.104-0.255,0.397-0.375,0.652-0.271c0.256,0.105,0.377,0.398,0.271,0.653l-0.534,1.294
					C252.093,143.744,251.906,143.861,251.71,143.861z"/>
			</g>
		</g>
		<g>
			<g>
				<path class="st3" d="M258.807,151.141c-0.063,0-0.128-0.012-0.19-0.038c-0.256-0.105-0.377-0.398-0.271-0.653l0.534-1.294
					c0.104-0.255,0.396-0.374,0.652-0.271c0.256,0.105,0.377,0.398,0.271,0.653l-0.534,1.294
					C259.189,151.025,259.003,151.141,258.807,151.141z"/>
			</g>
		</g>
		<g>
			<g>
				<path class="st3" d="M246.276,155.125c-0.123,0-0.247-0.045-0.344-0.137l-1.017-0.962c-0.2-0.19-0.209-0.506-0.02-0.707
					c0.189-0.2,0.506-0.21,0.707-0.02l1.017,0.962c0.2,0.19,0.209,0.506,0.02,0.707
					C246.541,155.073,246.409,155.125,246.276,155.125z"/>
			</g>
		</g>
		<g>
			<g>
				<path class="st3" d="M252.477,157.706c-0.257,0-0.476-0.198-0.497-0.459l-0.115-1.396c-0.023-0.275,0.182-0.517,0.457-0.54
					c0.245-0.024,0.517,0.181,0.539,0.458l0.115,1.396c0.023,0.275-0.182,0.517-0.457,0.54
					C252.506,157.706,252.492,157.706,252.477,157.706z"/>
			</g>
		</g>
		<g>
			<g>
				<path class="st3" d="M258.767,154.57c-0.154,0-0.307-0.071-0.404-0.206l-0.824-1.132c-0.162-0.224-0.113-0.536,0.11-0.699
					c0.223-0.161,0.536-0.113,0.698,0.11l0.824,1.132c0.162,0.224,0.113,0.536-0.11,0.699
					C258.972,154.538,258.869,154.57,258.767,154.57z"/>
			</g>
		</g>
		<g>
			<g>
				<path class="st3" d="M255.788,157.198c-0.055,0-0.109-0.009-0.163-0.027c-0.262-0.09-0.399-0.375-0.31-0.636l0.458-1.323
					c0.09-0.261,0.379-0.396,0.636-0.309c0.262,0.09,0.399,0.375,0.31,0.636l-0.458,1.323
					C256.189,157.068,255.995,157.198,255.788,157.198z"/>
			</g>
		</g>
		<g>
			<g>
				<path class="st3" d="M248.619,157.213c-0.237,0-0.447-0.169-0.491-0.412c-0.049-0.271,0.132-0.532,0.403-0.581l1.378-0.248
					c0.275-0.05,0.531,0.132,0.581,0.404c0.049,0.271-0.132,0.532-0.403,0.581l-1.378,0.248
					C248.679,157.21,248.648,157.213,248.619,157.213z"/>
			</g>
		</g>
		<g>
			<g>
				<path class="st3" d="M257.869,146.952c-0.248,0-0.463-0.185-0.495-0.438c-0.034-0.274,0.16-0.524,0.434-0.559l1.389-0.175
					c0.266-0.033,0.523,0.159,0.559,0.434c0.034,0.274-0.16,0.524-0.434,0.559l-1.389,0.175
					C257.911,146.951,257.891,146.952,257.869,146.952z"/>
			</g>
		</g>
	</g>
</g>
<g id="birthday_cake">
	<g>
		<g>
			<g>
				<path class="st5" d="M212.081,165.494H187.79c-1.105,0-2-0.895-2-2v-7.831c0-1.105,0.895-2,2-2h24.291c1.105,0,2,0.895,2,2
					v7.831C214.081,164.598,213.185,165.494,212.081,165.494z"/>
			</g>
		</g>
		<g>
			<g>
				<path class="st5" d="M208.336,153.462h-16.8c-1.105,0-2-0.895-2-2v-7.831c0-1.105,0.895-2,2-2h16.8c1.105,0,2,0.895,2,2v7.831
					C210.336,152.567,209.44,153.462,208.336,153.462z"/>
			</g>
		</g>
		<g>
			<g>
				<path class="st0" d="M211.724,147.621c0,2.938-2.956,2.968-2.956,0c0-3.12-3.524-3.136-3.524,0c0,0.057-0.004-1.152-0.004,1.784
					c0,2.936-3.462,2.899-3.462,0c0-2.899-0.019-1.66-0.019-1.784c0-3.001-3.761-2.978-3.761,0c0,2.978-3.207,2.882-3.207,0
					c0-0.058-0.001-1.558-0.004-1.614c-0.134-2.655-3.41-2.727-3.554,0c-0.003,0.061-0.005,1.549-0.005,1.614
					c0,2.978-3.08,2.961-3.08,0s0-4.611,0-4.611c0-0.744,0.603-1.347,1.347-1.347h20.883c0.744,0,1.347,0.603,1.347,1.347
					C211.724,143.009,211.724,144.682,211.724,147.621z"/>
			</g>
		</g>
		<g>
			<g>
				<path class="st0" d="M184.661,159.536c0,2.938,2.956,2.968,2.956,0c0-3.12,3.524-3.136,3.524,0c0,0.057,0.004-1.152,0.004,1.784
					c0,2.936,3.462,2.899,3.462,0c0-2.899,0.019-1.66,0.019-1.784c0-3.001,3.643-2.978,3.643,0c0,2.978,3.207,2.882,3.207,0
					c0-0.058,0.004,1.375,0.004-1.614s3.608-2.985,3.608,0.161s-0.001-1.719-0.001,1.436c0,3.155,3.365,3.145,3.365-0.012
					s-0.015,2.455-0.015-0.633s3.608-3.148,3.608,0.074s-0.01-2.079-0.01,0.579s3.211,2.736,3.211,0.009c0-2.727,0-0.477,0-0.702
					c0-2.519,0-3.909,0-3.909c0-0.744-0.603-1.347-1.347-1.347h-27.891c-0.744,0-1.347,0.603-1.347,1.347
					C184.661,154.925,184.661,156.598,184.661,159.536z"/>
			</g>
		</g>
		<g>
			<g>
				<path class="st6" d="M201.954,139.116c2.31-2.311-1.74-4.049-2.887-4.622c0.653,0.327,0.624,1.321-0.213,1.878
					c-1.109,0.737-2.412,1.432-1.1,2.745"/>
			</g>
		</g>
		<g>
			<g>
				<path class="st6" d="M201.478,139.117h1.124c0.703,0,1.273,0.57,1.273,1.272v0.001c0,0.702-0.57,1.272-1.273,1.272h-5.299
					c-0.703,0-1.272-0.57-1.272-1.272v-0.001c0-0.702,0.569-1.272,1.272-1.272h1.045"/>
			</g>
		</g>
	</g>
	<g id="light_6_" class="st1">
		<g>
			<g>
				<path class="st2" d="M189.647,149.121c0-2.961,0-4.611,0-4.611c0-0.744,0.603-1.347,1.347-1.347h20.73c0-0.09,0-0.153,0-0.153
					c0-0.744-0.603-1.347-1.347-1.347h-20.883c-0.744,0-1.347,0.603-1.347,1.347c0,0,0,1.65,0,4.611
					c0,1.505,0.796,2.245,1.578,2.223C189.68,149.624,189.647,149.388,189.647,149.121z"/>
			</g>
		</g>
	</g>
	<g id="light_5_" class="st1">
		<g>
			<g>
				<path class="st2" d="M186.161,161.036c0-2.938,0-4.611,0-4.611c0-0.744,0.603-1.347,1.347-1.347h27.738c0-0.091,0-0.153,0-0.153
					c0-0.744-0.603-1.347-1.347-1.347h-27.891c-0.744,0-1.347,0.603-1.347,1.347c0,0,0,1.673,0,4.611
					c0,1.532,0.803,2.265,1.572,2.203C186.191,161.525,186.161,161.296,186.161,161.036z"/>
			</g>
		</g>
	</g>
	<g id="light_3_" class="st1">
		<g>
			<path class="st2" d="M200.354,137.371c0.836-0.556,0.866-1.551,0.213-1.878c0.263,0.131-0.948-0.724-1.5-1
				c0.653,0.327,0.624,1.321-0.213,1.878c-1.109,0.737-2.412,1.432-1.1,2.745h0.955
				C198.686,138.399,199.567,137.895,200.354,137.371z"/>
		</g>
	</g>
	<g id="light_4_" class="st1">
		<g>
			<path class="st2" d="M197.531,141.39v-0.001c0-0.702,0.475-2.273,1.178-2.273l-0.361,0h-1.045c-0.703,0-1.272,0.57-1.272,1.272
				v0.001c0,0.702,0.569,1.272,1.272,1.272h0.283C197.566,141.572,197.531,141.487,197.531,141.39z"/>
		</g>
	</g>
	<g>
		<g>
			<g>
				<path class="st3" d="M209.189,142.162h-18.508c-0.276,0-0.5-0.224-0.5-0.5s0.224-0.5,0.5-0.5h18.508c0.276,0,0.5,0.224,0.5,0.5
					S209.466,142.162,209.189,142.162z"/>
			</g>
		</g>
		<g>
			<g>
				<path class="st3" d="M209.189,154.078h-18.508c-1.018,0-1.846-0.829-1.846-1.847v-2.438c0-0.276,0.224-0.5,0.5-0.5
					s0.5,0.224,0.5,0.5v2.438c0,0.467,0.379,0.847,0.846,0.847h18.508c0.467,0,0.847-0.38,0.847-0.847v-2.36
					c0-0.276,0.224-0.5,0.5-0.5s0.5,0.224,0.5,0.5v2.36C211.036,153.249,210.208,154.078,209.189,154.078z"/>
			</g>
		</g>
		<g>
			<g>
				<path class="st3" d="M212.734,154.078h-25.597c-0.276,0-0.5-0.224-0.5-0.5s0.224-0.5,0.5-0.5h25.597c0.276,0,0.5,0.224,0.5,0.5
					S213.011,154.078,212.734,154.078z"/>
			</g>
		</g>
		<g>
			<g>
				<path class="st3" d="M212.734,165.994h-25.597c-1.019,0-1.847-0.829-1.847-1.848v-2.454c0-0.276,0.224-0.5,0.5-0.5
					s0.5,0.224,0.5,0.5v2.454c0,0.468,0.38,0.848,0.847,0.848h25.597c0.467,0,0.847-0.38,0.847-0.848v-2.661
					c0-0.276,0.224-0.5,0.5-0.5s0.5,0.224,0.5,0.5v2.661C214.581,165.165,213.753,165.994,212.734,165.994z"/>
			</g>
		</g>
		<g>
			<g>
				<path class="st3" d="M203.517,152.093c-1.113,0-2.239-0.923-2.239-2.688c0-0.909-0.001-1.405-0.004-1.663
					c-0.01-0.039-0.015-0.08-0.015-0.121c0-1.203-0.691-1.742-1.375-1.742c-0.69,0-1.386,0.539-1.386,1.742
					c0,1.854-1.08,2.698-2.083,2.698c-1.055,0-2.123-0.927-2.123-2.698c0-0.056-0.001-1.487-0.004-1.595
					c-0.054-1.058-0.687-1.536-1.29-1.537c0,0-0.001,0-0.001,0c-0.589,0-1.208,0.478-1.264,1.545
					c-0.003,0.107-0.004,1.525-0.004,1.587c0,0.801-0.202,1.485-0.585,1.978c-0.37,0.476-0.899,0.75-1.452,0.75
					c-1.016,0-2.043-0.937-2.043-2.728v-4.611c0-1.018,0.829-1.847,1.847-1.847h20.883c1.019,0,1.847,0.829,1.847,1.847v4.611
					c0,1.782-0.998,2.715-1.983,2.715c-0.54,0-1.055-0.274-1.413-0.752c-0.366-0.489-0.56-1.167-0.56-1.962
					c0-1.915-1.437-2.218-2.092-1.438c-0.282,0.334-0.432,0.832-0.432,1.438c0,0.019-0.001,0.037-0.003,0.055
					c-0.001,0.262-0.001,0.776-0.001,1.729C205.74,151.17,204.622,152.093,203.517,152.093z M202.256,147.62
					c0.022,0.36,0.022,0.918,0.022,1.784c0,1.757,1.415,2.027,2.05,1.311c0.27-0.304,0.412-0.757,0.412-1.311
					c0-0.791,0-1.33,0.016-1.697c-0.006-0.028-0.01-0.058-0.012-0.087h0c0-0.004,0-0.008,0-0.013c0-0.003,0-0.007,0-0.011
					l-0.001-0.159h0.005c0.031-0.766,0.259-1.42,0.664-1.9c0.409-0.485,0.989-0.763,1.591-0.763c1.126,0,2.266,0.978,2.266,2.846
					c0,2.264,1.955,2.241,1.956,0v-4.611c0-0.467-0.38-0.847-0.847-0.847h-20.883c-0.467,0-0.847,0.38-0.847,0.847v4.611
					c0,1.669,1.138,2.093,1.706,1.365c0.171-0.22,0.375-0.636,0.375-1.365c0-0.065,0.002-1.579,0.006-1.641
					c0.09-1.711,1.236-2.491,2.263-2.491c0.001,0,0.002,0,0.002,0c1.074,0.001,2.205,0.858,2.288,2.493
					c0.003,0.055,0.005,1.58,0.005,1.639c0,1.642,1.236,2.062,1.825,1.337c0.25-0.307,0.382-0.77,0.382-1.337
					c0-1.8,1.201-2.742,2.386-2.742c0.631,0,1.219,0.254,1.654,0.716c0.451,0.479,0.699,1.139,0.72,1.915l0.006,0
					c-0.001,0.02-0.002,0.039-0.005,0.059c0,0.017,0,0.034,0,0.051H202.256z"/>
			</g>
		</g>
		<g>
			<g>
				<path class="st3" d="M192.867,164.008c-0.597,0-1.151-0.253-1.559-0.714c-0.434-0.489-0.664-1.172-0.664-1.974
					c0-0.957,0-1.471-0.001-1.733c-0.001-0.017-0.002-0.034-0.002-0.051c0-0.606-0.149-1.103-0.432-1.438
					c-0.657-0.778-2.092-0.477-2.092,1.438c0,1.865-1.022,2.715-1.972,2.715c-0.986,0-1.984-0.933-1.984-2.715v-4.611
					c0-1.019,0.829-1.847,1.847-1.847h27.891c1.019,0,1.847,0.829,1.847,1.847v4.611c-0.001,3.04-3.504,3.276-4.119,0.786
					c-0.037-0.078-0.059-0.181-0.07-0.313l-0.013,0c0-0.018,0-0.085,0.001-0.218c-0.007-0.085-0.01-0.174-0.01-0.264
					c0-0.19,0-0.354,0.003-0.493c0-0.139-0.001-0.243-0.001-0.266l0.003,0c-0.059-1.183-0.702-1.723-1.303-1.723
					c-0.578,0-1.196,0.487-1.289,1.549c0,0.045-0.001,0.109-0.001,0.184c0.005,0.192,0.005,0.432,0.005,0.729
					c0,1.887-1.101,2.874-2.188,2.874c-0.586,0-1.148-0.283-1.544-0.778c-0.415-0.518-0.634-1.239-0.634-2.083
					c0-0.186,0-0.35,0.001-0.495v-0.105c0-0.04,0-0.08,0-0.121l0-0.393h0.001v-0.323c0-0.615-0.157-1.119-0.454-1.459
					c-0.671-0.77-2.154-0.529-2.154,1.299c0,0.703,0,1.201-0.013,1.553c0.004,0.02,0.006,0.04,0.008,0.061h0.001
					c0,0.007,0,0.013,0,0.02c0,0.004,0,0.008,0,0.013l0.001,0.245h-0.011c-0.105,1.59-1.115,2.42-2.114,2.42
					c-0.562,0-1.101-0.266-1.478-0.729c-0.396-0.488-0.606-1.168-0.606-1.968c0-1.822-1.527-2.09-2.206-1.346
					c-0.286,0.313-0.437,0.779-0.437,1.346c0,0.042-0.005,0.083-0.015,0.123c-0.002,0.258-0.004,0.754-0.004,1.662
					C195.106,163.085,193.98,164.008,192.867,164.008z M191.628,159.625c0.016,0.367,0.016,0.906,0.016,1.695
					c0,1.167,0.614,1.688,1.223,1.688c0.597,0,1.239-0.528,1.239-1.688c0-0.843,0-1.394,0.021-1.755
					c-0.002-0.014-0.003-0.029-0.003-0.043l0.001,0c0.014-3.596,4.643-3.572,4.643,0.014c0,2.414,2.207,2.157,2.207,0
					c0-0.02,0.001-0.039,0.003-0.058c0-0.278,0-0.759,0-1.556c0-1.786,1.141-2.72,2.268-2.72c0.618,0,1.215,0.278,1.639,0.764
					c0.458,0.525,0.701,1.257,0.701,2.117c0,0.185,0,0.348-0.001,0.493v0.102c0,0.04,0,0.08,0,0.12l0.001,0.393h-0.001v0.329
					c0,0.777,0.226,1.222,0.415,1.458c0.589,0.738,1.799,0.491,1.938-1.164l0,0c0.001-0.025,0.001-0.119,0.002-0.245
					c-0.005-0.185-0.005-0.414-0.005-0.696c0-0.119,0.005-0.234,0.014-0.346v-0.001l0,0c0.279-3.38,4.595-3.263,4.595,0.421
					c0,0.295,0,0.535-0.004,0.73c0,0.01,0,0.019,0,0.028c0.028,0.415,0.156,0.758,0.375,1c0.583,0.65,1.829,0.417,1.83-1.17v-4.611
					c0-0.467-0.38-0.847-0.847-0.847h-27.891c-0.467,0-0.847,0.38-0.847,0.847v4.611c0,2.238,1.956,2.267,1.956,0
					c0-1.868,1.14-2.846,2.266-2.846c0.602,0,1.182,0.278,1.591,0.764c0.404,0.479,0.632,1.133,0.663,1.898h0.005l-0.001,0.16
					c0,0.003,0,0.007,0,0.011c0,0.004,0,0.009,0,0.013h0C191.639,159.566,191.635,159.595,191.628,159.625z"/>
			</g>
		</g>
		<g>
			<g>
				<path class="st3" d="M201.954,139.616c-0.128,0-0.256-0.049-0.354-0.146c-0.195-0.195-0.195-0.512,0-0.707
					c0.428-0.429,0.605-0.825,0.54-1.211c-0.133-0.795-1.225-1.526-2.141-2.026c-0.085,0.486-0.397,0.949-0.869,1.263l-0.231,0.152
					c-0.542,0.355-1.158,0.758-1.194,1.113c-0.024,0.23,0.206,0.514,0.402,0.71c0.195,0.195,0.195,0.512,0,0.707
					s-0.512,0.195-0.707,0c-0.517-0.517-0.743-1.014-0.69-1.52c0.085-0.828,0.877-1.346,1.642-1.847l0.225-0.148
					c0.347-0.23,0.457-0.526,0.445-0.726c-0.008-0.136-0.068-0.232-0.179-0.288l0,0c-0.247-0.124-0.347-0.424-0.224-0.671
					c0.124-0.247,0.423-0.346,0.671-0.224l0,0l0.246,0.121c1.16,0.564,3.32,1.615,3.59,3.219c0.121,0.718-0.155,1.419-0.819,2.084
					C202.21,139.568,202.082,139.616,201.954,139.616z"/>
			</g>
		</g>
		<g>
			<g>
				<path class="st3" d="M202.602,142.162h-5.299c-0.977,0-1.772-0.795-1.772-1.772s0.795-1.773,1.772-1.773h1.045
					c0.276,0,0.5,0.224,0.5,0.5s-0.224,0.5-0.5,0.5h-1.045c-0.426,0-0.772,0.346-0.772,0.772c0,0.426,0.346,0.773,0.772,0.773h5.299
					c0.426,0,0.773-0.347,0.773-0.772c0-0.426-0.347-0.773-0.773-0.773h-1.124c-0.276,0-0.5-0.224-0.5-0.5s0.224-0.5,0.5-0.5h1.124
					c0.978,0,1.773,0.795,1.773,1.772C204.375,141.367,203.58,142.162,202.602,142.162z"/>
			</g>
		</g>
	</g>
</g>
<g id="pie_3_">
	<g>
		<g>
			<g>
				<path class="st0" d="M187.477,96.057l25-4.21c1.604-0.603-6.599-5.785-10.521-3.655S187.477,96.057,187.477,96.057z"/>
			</g>
		</g>
		<g>
			<g>
				<polygon class="st5" points="212.477,103.928 187.477,108.118 187.477,96.037 212.477,91.847 				"/>
			</g>
		</g>
		<g>
			<g>
				<polygon class="st7" points="212.477,99.424 187.477,103.634 187.477,105.336 212.477,101.126 				"/>
			</g>
		</g>
		<g>
			<g>
				<polygon class="st7" points="212.477,94.954 187.477,99.165 187.477,100.867 212.477,96.656 				"/>
			</g>
		</g>
	</g>
	<g class="st1">
		<g>
			<path class="st2" d="M201.956,89.692c2.792-1.517,7.75,0.671,9.799,2.276l0.723-0.122c1.604-0.603-6.599-5.785-10.521-3.655
				s-14.479,7.865-14.479,7.865l4.002-0.674C194.893,93.528,199.61,90.966,201.956,89.692z"/>
		</g>
	</g>
	<g>
		<g>
			<g>
				<circle cx="193.297" cy="96.944" r="0.5"/>
			</g>
		</g>
		<g>
			<g>
				<circle cx="203.818" cy="99.365" r="0.5"/>
			</g>
		</g>
		<g>
			<g>
				<circle cx="195.345" cy="105.883" r="0.5"/>
			</g>
		</g>
		<g>
			<g>
				<circle cx="196.928" cy="100.762" r="0.5"/>
			</g>
		</g>
		<g>
			<g>
				<circle cx="209.218" cy="93.965" r="0.5"/>
			</g>
		</g>
		<g>
			<g>
				<circle cx="210.336" cy="103.276" r="0.5"/>
			</g>
		</g>
		<g>
			<g>
				<circle cx="201.49" cy="104.021" r="0.5"/>
			</g>
		</g>
		<g>
			<g>
				<path class="st3" d="M187.477,101.367c-0.117,0-0.232-0.042-0.323-0.118c-0.112-0.095-0.177-0.235-0.177-0.382v-1.702
					c0-0.244,0.176-0.453,0.417-0.493l25-4.21c0.146-0.022,0.293,0.017,0.406,0.111c0.112,0.095,0.177,0.235,0.177,0.382v1.702
					c0,0.244-0.176,0.453-0.417,0.493l-25,4.21C187.533,101.365,187.505,101.367,187.477,101.367z M187.977,99.588v0.688l24-4.042
					v-0.688L187.977,99.588z"/>
			</g>
		</g>
		<g>
			<g>
				<path class="st3" d="M187.477,105.836c-0.117,0-0.232-0.042-0.323-0.118c-0.112-0.095-0.177-0.235-0.177-0.382v-1.702
					c0-0.244,0.176-0.453,0.417-0.493l25-4.21c0.146-0.023,0.293,0.017,0.406,0.111c0.112,0.095,0.177,0.235,0.177,0.382v1.702
					c0,0.244-0.176,0.453-0.417,0.493l-25,4.21C187.533,105.834,187.505,105.836,187.477,105.836z M187.977,104.057v0.688l24-4.042
					v-0.688L187.977,104.057z"/>
			</g>
		</g>
		<g>
			<g>
				<path class="st3" d="M187.477,97.282c-0.276,0-0.5-0.224-0.5-0.5v-0.725c0-0.244,0.176-0.453,0.417-0.493l25-4.21
					c0.146-0.022,0.294,0.017,0.406,0.111c0.112,0.095,0.177,0.235,0.177,0.382v0.724c0,0.276-0.224,0.5-0.5,0.5s-0.5-0.224-0.5-0.5
					v-0.133l-24,4.042v0.302C187.977,97.058,187.754,97.282,187.477,97.282z"/>
			</g>
		</g>
		<g>
			<g>
				<path class="st3" d="M187.477,108.617c-0.117,0-0.232-0.042-0.323-0.118c-0.112-0.095-0.177-0.235-0.177-0.382V96.037
					c0-0.244,0.176-0.453,0.417-0.493l25-4.19c0.15-0.022,0.294,0.017,0.406,0.111c0.112,0.095,0.177,0.235,0.177,0.382v12.081
					c0,0.244-0.177,0.453-0.417,0.493l-25,4.19C187.533,108.615,187.505,108.617,187.477,108.617z M187.977,96.46v11.066l24-4.022
					V92.438L187.977,96.46z M212.477,103.928h0.01H212.477z"/>
			</g>
		</g>
		<g>
			<g>
				<path class="st3" d="M187.483,96.531c-0.157,0-0.312-0.072-0.408-0.208c-0.157-0.221-0.115-0.523,0.103-0.686
					c0.353-0.265,11.66-6.652,14.582-7.904c2.296-0.986,7.003,0.179,9.519,1.839c1.128,0.744,1.699,1.509,1.699,2.275
					c0,0.276-0.224,0.5-0.5,0.5s-0.5-0.224-0.5-0.5c0-0.386-0.467-0.924-1.25-1.44c-2.247-1.482-6.643-2.583-8.575-1.755
					c-2.909,1.247-13.984,7.523-14.386,7.793C187.68,96.503,187.581,96.531,187.483,96.531z"/>
			</g>
		</g>
	</g>
</g>
<g id="donut">
	<path class="st5" d="M104.861,157.462H87.094c-3.638,0-6.614-2.976-6.614-6.614v0c0-3.638,2.976-6.614,6.614-6.614h17.767
		c3.638,0,6.614,2.976,6.614,6.614v0C111.475,154.485,108.499,157.462,104.861,157.462z"/>
	<g>
		<g>
			<path class="st3" d="M104.861,144.733H87.095c-0.276,0-0.5-0.224-0.5-0.5s0.224-0.5,0.5-0.5h17.766c0.276,0,0.5,0.224,0.5,0.5
				S105.137,144.733,104.861,144.733z"/>
		</g>
	</g>
	<g>
		<g>
			<path class="st3" d="M105.234,157.962H86.712c-3.711,0-6.731-3.02-6.731-6.731v-0.383c0-0.276,0.224-0.5,0.5-0.5
				s0.5,0.224,0.5,0.5v0.383c0,3.16,2.571,5.731,5.731,5.731h18.522c3.166,0,5.741-2.571,5.741-5.731v-0.383
				c0-0.276,0.224-0.5,0.5-0.5s0.5,0.224,0.5,0.5v0.383C111.975,154.942,108.951,157.962,105.234,157.962z"/>
		</g>
	</g>
	<g>
		<g>
			<path class="st7" d="M104.943,150.638c0-3.952-5.793-3.852-5.793,0.081c0,4.91-6.776,5.009-6.776,0.057c0-0.254,0-0.492,0-0.722
				c0-4.889-6.134-4.889-6.134,0.113c0,0.217,0,0.442,0,0.681c0,3.996-5.762,3.845-5.762,0.004v0c0-3.654,2.962-6.617,6.617-6.617
				h17.767c3.654,0,6.617,2.962,6.617,6.617v0c0,0.183,0,0.352,0,0.519c0,5.438-6.535,5.539-6.535-0.104
				C104.943,151.066,104.943,150.861,104.943,150.638z"/>
		</g>
	</g>
	<g id="light_2_">
		<g class="st8">
			<g>
				<path class="st2" d="M81.977,152.351L81.977,152.351c0-3.654,2.962-6.617,6.617-6.617h17.767c1.444,0,2.776,0.468,3.864,1.253
					c-1.202-1.665-3.154-2.753-5.364-2.753H87.094c-3.654,0-6.617,2.962-6.617,6.617v0c0,1.392,0.76,2.292,1.725,2.693
					C82.062,153.196,81.977,152.801,81.977,152.351z"/>
			</g>
		</g>
	</g>
	<g>
		<g>
			<path class="st3" d="M108.211,155.973c-1.004,0-1.936-0.432-2.623-1.216c-0.75-0.854-1.146-2.062-1.146-3.491v-0.628
				c0-0.761-0.25-1.391-0.723-1.821c-0.422-0.384-0.999-0.595-1.624-0.595c-1.178,0-2.446,0.781-2.446,2.497
				c0,2.775-1.977,4.227-3.929,4.227c-1.012,0-1.954-0.375-2.653-1.055c-0.782-0.761-1.195-1.838-1.195-3.114v-0.722
				c0-2.167-1.317-3.153-2.541-3.153c-1.249,0-2.593,1.022-2.593,3.266v0.681c0,2.364-1.731,3.441-3.34,3.441
				c-1.701,0-3.422-1.181-3.422-3.438c0-3.924,3.192-7.117,7.117-7.117h17.766c3.924,0,7.117,3.192,7.117,7.117v0.519
				C111.977,154.392,110.082,155.973,108.211,155.973z M102.096,147.221c1.663,0,3.347,1.173,3.347,3.417v0.628
				c0,1.183,0.31,2.163,0.897,2.832c0.495,0.564,1.159,0.875,1.871,0.875c1.333,0,2.767-1.127,2.767-3.604v-0.519
				c0-3.373-2.744-6.117-6.117-6.117H87.094c-3.373,0-6.117,2.744-6.117,6.117c0,1.675,1.255,2.438,2.422,2.438
				c0.624,0,1.198-0.212,1.617-0.597c0.473-0.434,0.723-1.072,0.723-1.844v-0.681c0-2.8,1.808-4.266,3.593-4.266
				c1.76,0,3.541,1.427,3.541,4.153v0.722c0,1,0.309,1.829,0.893,2.397c0.511,0.498,1.206,0.772,1.955,0.772
				c1.411,0,2.929-1.01,2.929-3.227c0-1.066,0.376-1.971,1.088-2.615C100.367,147.534,101.204,147.221,102.096,147.221z"/>
		</g>
	</g>
</g>
<g id="ice_cream">
	<g>
		<g>
			<g>
				<circle class="st6" cx="147.966" cy="138.858" r="3.938"/>
			</g>
		</g>
		<g>
			<g>
				<circle class="st7" cx="143.675" cy="144.233" r="3.938"/>
			</g>
		</g>
		<g>
			<g>
				<circle class="st0" cx="152.28" cy="144.233" r="3.938"/>
			</g>
		</g>
		<g>
			<g class="st8">
				<g>
					<path class="st2" d="M149.466,136.421c0.701,0,1.349,0.198,1.919,0.519c-0.675-1.199-1.944-2.019-3.419-2.019
						c-2.175,0-3.938,1.763-3.938,3.938c0,0.533,0.11,1.038,0.304,1.499c-0.214-0.037-0.432-0.062-0.658-0.062
						c-2.175,0-3.938,1.763-3.938,3.938c0,1.474,0.82,2.744,2.019,3.419c-0.321-0.57-0.519-1.218-0.519-1.919
						c0-2.175,1.763-3.938,3.938-3.938c0.076,0,0.149,0.011,0.224,0.016c0.1,0.007,0.387,0.045,0.447,0.053
						c0.445,0.082,0.865,0.235,1.248,0.45c-0.36-0.641-0.894-1.167-1.534-1.524c-0.017-0.142-0.03-0.285-0.03-0.432
						C145.529,138.183,147.292,136.421,149.466,136.421z"/>
				</g>
			</g>
			<g class="st1">
				<g>
					<path class="st2" d="M149.842,145.733c0-2.175,1.763-3.938,3.938-3.938c0.701,0,1.349,0.198,1.919,0.519
						c-0.675-1.199-1.944-2.019-3.419-2.019c-2.175,0-3.938,1.763-3.938,3.938c0,1.474,0.82,2.744,2.019,3.419
						C150.041,147.082,149.842,146.434,149.842,145.733z"/>
				</g>
			</g>
		</g>
		<g>
			<g>
				<polygon class="st5" points="155.092,147.546 140.841,147.547 147.874,165.494 				"/>
			</g>
		</g>
		<g>
			<g>
				<polygon class="st5" points="155.571,147.546 140.352,147.546 139.076,145.587 156.879,145.587 				"/>
			</g>
		</g>
	</g>
	<g>
		<g>
			<g>
				<rect x="140.075" y="145.087" class="st3" width="15.805" height="1"/>
			</g>
		</g>
		<g>
			<g>
				<path class="st3" d="M147.875,165.99c-0.209-0.024-0.392-0.123-0.467-0.314l-7.03-17.947c-0.101-0.257,0.026-0.547,0.283-0.647
					c0.255-0.101,0.547,0.026,0.647,0.283l6.572,16.775l6.737-16.754l0.94,0.343l-0.203,0.504l-7.014,17.44
					C148.265,165.863,148.079,165.99,147.875,165.99z"/>
			</g>
		</g>
		<g>
			<g>
				<path class="st3" d="M156.867,145.735l-0.955-0.296c0.113-0.366,0.171-0.747,0.171-1.132c0-2.096-1.706-3.802-3.802-3.802
					c-1.735,0.025-3.179,1.123-3.649,2.73c-0.102,0.347-0.154,0.708-0.154,1.071c0,0.227,0.021,0.449,0.058,0.666
					c0.028,0.16,0.066,0.316,0.113,0.468l-0.956,0.294c-0.059-0.191-0.107-0.389-0.142-0.59c-0.048-0.276-0.073-0.558-0.073-0.837
					c0-0.459,0.065-0.914,0.194-1.353c0.595-2.031,2.418-3.417,4.536-3.448c0,0,0.001,0,0.001,0c2.721,0,4.874,2.153,4.874,4.801
					C157.082,144.792,157.01,145.273,156.867,145.735z"/>
			</g>
		</g>
		<g>
			<g>
				<path class="st3" d="M152.588,140.148l-0.96-0.279c0.102-0.349,0.153-0.709,0.153-1.072c0-2.097-1.706-3.803-3.803-3.803
					c-2.097,0-3.803,1.706-3.803,3.803c0,0.363,0.051,0.724,0.153,1.072l-0.96,0.279c-0.128-0.439-0.193-0.894-0.193-1.352
					c0-2.648,2.154-4.803,4.803-4.803s4.803,2.154,4.803,4.803C152.781,139.254,152.716,139.709,152.588,140.148z"/>
			</g>
		</g>
		<g>
			<g>
				<path class="st3" d="M139.089,145.736c-0.144-0.46-0.217-0.941-0.217-1.43c0-2.647,2.154-4.802,4.803-4.802
					c2.191,0.032,4.014,1.418,4.609,3.449c0.128,0.438,0.193,0.893,0.193,1.353c0,0.281-0.024,0.563-0.073,0.838
					c-0.035,0.2-0.083,0.397-0.142,0.589l-0.956-0.294c0.047-0.151,0.085-0.308,0.113-0.467c0.038-0.217,0.058-0.439,0.058-0.667
					c0-0.365-0.052-0.725-0.153-1.071c-0.471-1.608-1.914-2.705-3.591-2.729c0,0-0.001,0-0.002,0c-2.154,0-3.859,1.705-3.859,3.801
					c0,0.387,0.058,0.768,0.171,1.131L139.089,145.736z"/>
			</g>
		</g>
		<g>
			<g>
				<path class="st3" d="M155.572,148.046h-15.219c-0.169,0-0.327-0.085-0.419-0.227l-1.277-1.959
					c-0.1-0.154-0.108-0.35-0.021-0.511s0.256-0.262,0.439-0.262h17.803c0.185,0,0.354,0.102,0.441,0.264s0.077,0.36-0.025,0.513
					l-1.307,1.959C155.895,147.963,155.739,148.046,155.572,148.046z M140.623,147.046h14.681l0.64-0.959h-15.946L140.623,147.046z"
					/>
			</g>
		</g>
		<g>
			<g>
				<path class="st3" d="M147.874,165.994c-0.001,0-0.001,0-0.002,0c-0.205-0.001-0.388-0.127-0.463-0.317l-7.033-17.947
					c-0.061-0.154-0.041-0.328,0.052-0.464s0.248-0.218,0.413-0.218l4.598-0.001c0.206,0,0.391,0.126,0.466,0.318l4.755,12.185
					c0.046,0.119,0.045,0.25-0.002,0.368l-2.32,5.763C148.262,165.87,148.078,165.994,147.874,165.994z M141.574,148.048
					l6.307,16.092l1.776-4.412l-4.559-11.682L141.574,148.048z"/>
			</g>
		</g>
		<g>
			<g>
				<path class="st3" d="M150.187,160.225c-0.209-0.042-0.392-0.126-0.466-0.318l-4.744-12.173c-0.06-0.154-0.04-0.327,0.053-0.463
					c0.093-0.136,0.248-0.218,0.413-0.218l4.637-0.006h0c0.206,0,0.391,0.126,0.466,0.318l2.471,6.318
					c0.046,0.119,0.045,0.251-0.002,0.369l-2.364,5.861C150.575,160.101,150.391,160.225,150.187,160.225z M146.174,148.052
					l4.021,10.317l1.818-4.508l-2.274-5.814L146.174,148.052z"/>
			</g>
		</g>
		<g>
			<g>
				<path class="st3" d="M152.551,154.364c-0.204,0.05-0.391-0.126-0.466-0.318l-2.471-6.317c-0.06-0.154-0.041-0.328,0.053-0.464
					c0.093-0.137,0.248-0.218,0.413-0.218h4.612c0.205,0,0.389,0.125,0.465,0.316l0.198,0.5c0.047,0.119,0.047,0.252-0.001,0.371
					l-2.339,5.816C152.939,154.24,152.755,154.364,152.551,154.364z M150.812,148.047l1.745,4.461l1.794-4.461H150.812z"/>
			</g>
		</g>
		<g>
			<g>
				<path class="st3" d="M147.873,165.994c-0.001,0-0.001,0-0.002,0c-0.205-0.001-0.388-0.127-0.463-0.317l-2.192-5.595
					c-0.046-0.117-0.046-0.247,0-0.364l4.822-12.353c0.075-0.192,0.26-0.318,0.466-0.318l4.589,0c0.166,0,0.321,0.083,0.414,0.22
					c0.093,0.138,0.112,0.312,0.05,0.466l-7.219,17.948C148.261,165.87,148.078,165.994,147.873,165.994z M146.219,159.899
					l1.661,4.24l6.473-16.093l-3.507,0L146.219,159.899z"/>
			</g>
		</g>
		<g>
			<g>
				<path class="st3" d="M145.682,160.4c-0.206,0-0.391-0.126-0.465-0.317l-2.328-5.941c-0.046-0.117-0.046-0.248,0-0.365
					l2.506-6.411c0.075-0.191,0.259-0.317,0.464-0.318l4.637-0.018h0.002c0.165,0,0.319,0.081,0.412,0.217
					c0.094,0.137,0.114,0.311,0.054,0.464l-4.815,12.369C146.073,160.273,145.888,160.4,145.682,160.4L145.682,160.4z
					 M143.891,153.959l1.79,4.566l4.084-10.492l-3.562,0.013L143.891,153.959z"/>
			</g>
		</g>
		<g>
			<g>
				<path class="st3" d="M143.353,154.459c-0.206,0-0.391-0.126-0.465-0.318l-2.31-5.896c-0.047-0.118-0.046-0.25,0.001-0.368
					l0.208-0.519c0.076-0.189,0.26-0.314,0.464-0.314c0,0,0.001,0,0.002,0l4.601,0.018c0.165,0,0.319,0.083,0.412,0.219
					s0.112,0.31,0.052,0.463l-2.5,6.397C143.744,154.333,143.559,154.459,143.353,154.459L143.353,154.459z M141.581,148.065
					l1.771,4.521l1.769-4.528l-3.532-0.013L141.581,148.065z"/>
			</g>
		</g>
	</g>
</g>
<g id="croissant">
	<g>
		<g>
			<g>
				<path class="st5" d="M251.906,106.053c-0.805,0-1.675-0.495-2.117-1.23l-4.687-13.197c-0.142-0.888,0.544-1.692,1.443-1.692
					h10.735c0.899,0,1.585,0.804,1.443,1.692l-4.687,13.197C253.678,105.591,252.711,106.053,251.906,106.053z"/>
			</g>
		</g>
		<g>
			<g>
				<path class="st5" d="M247.155,104.142l2.392,0l-4.262-12.001l-3.734,1.288c-1.117,0.508-1.916,1.108-1.55,2.173l4.102,7.282
					C245.158,104.287,246.359,104.142,247.155,104.142z"/>
			</g>
		</g>
		<g>
			<g>
				<path class="st5" d="M240.068,95.731l3.919,6.949c0,0-5.658,3.52-7.204,1.33C235.236,101.819,240.068,95.731,240.068,95.731z"/>
			</g>
		</g>
		<g>
			<g>
				<path class="st5" d="M256.735,103.963l-2.392,0l4.262-12.001l3.734,1.288c1.117,0.508,1.916,1.108,1.55,2.173l-4.102,7.282
					C258.731,104.109,257.531,103.963,256.735,103.963z"/>
			</g>
		</g>
		<g>
			<g>
				<path class="st5" d="M263.886,95.425l-3.919,6.949c0,0,5.658,3.52,7.204,1.33S263.886,95.425,263.886,95.425z"/>
			</g>
		</g>
	</g>
	<g id="light_1_">
		<g class="st1">
			<g>
				<path class="st2" d="M241.378,97.275c-0.366-1.064,0.556-1.838,1.673-2.346l2.872-0.991l-0.638-1.797l-3.734,1.288
					c-1.117,0.508-1.916,1.108-1.55,2.173L241.378,97.275z"/>
			</g>
		</g>
		<g class="st1">
			<g>
				<path class="st2" d="M241.193,97.726l-1.125-1.995c0,0-4.832,6.088-3.286,8.279c0.287,0.407,0.717,0.615,1.225,0.687
					C237.766,102.599,240.233,99.023,241.193,97.726z"/>
			</g>
		</g>
	</g>
	<g id="light" class="st1">
		<g>
			<path class="st2" d="M245.923,93.938l0.174-0.881c-0.142-0.888,1.049-1.622,1.948-1.622h10.687c0.022-0.808-0.619-1.5-1.452-1.5
				h-10.735c-0.899,0-1.585,0.804-1.443,1.692L245.923,93.938z"/>
		</g>
	</g>
	<g>
		<g>
			<g>
				<path class="st3" d="M251.906,106.553c-0.993,0-2.016-0.592-2.546-1.473l-4.729-13.287c-0.113-0.657,0.049-1.233,0.422-1.671
					c0.373-0.437,0.917-0.688,1.491-0.688h10.735c0.574,0,1.118,0.251,1.491,0.688c0.373,0.438,0.535,1.015,0.445,1.583
					l-4.71,13.286C254.023,106.032,252.837,106.553,251.906,106.553z M246.545,90.434c-0.281,0-0.548,0.123-0.73,0.337
					s-0.263,0.497-0.218,0.776l4.663,13.108c0.302,0.482,1.013,0.898,1.646,0.898c0.608,0,1.401-0.353,1.677-0.942l4.669-13.153
					c0.021-0.19-0.059-0.473-0.241-0.687s-0.449-0.337-0.73-0.337H246.545z"/>
			</g>
		</g>
		<g>
			<g>
				<path class="st3" d="M246.721,104.646c-0.809,0-2.001-0.11-3.018-1.462l-4.138-7.336c-0.621-1.781,1.122-2.575,1.778-2.874
					l3.778-1.306c0.26-0.091,0.543,0.047,0.634,0.305l4.262,12.001c0.055,0.153,0.031,0.323-0.062,0.456
					c-0.094,0.132-0.246,0.211-0.408,0.211l0,0l-2.392,0l-0.199,0.002C246.882,104.644,246.804,104.646,246.721,104.646z
					 M244.979,92.775l-3.266,1.126c-1.271,0.582-1.423,1.006-1.24,1.538l4.064,7.199c0.779,1.029,1.642,1.021,2.403,1.006
					l0.214-0.002l0,0l1.684,0L244.979,92.775z"/>
			</g>
		</g>
		<g>
			<g>
				<path class="st3" d="M238.451,105.226c-0.851,0-1.6-0.252-2.077-0.928c-1.713-2.427,2.784-8.225,3.303-8.878
					c0.104-0.129,0.263-0.2,0.431-0.188c0.166,0.013,0.314,0.108,0.396,0.253l3.918,6.949c0.132,0.233,0.056,0.529-0.172,0.67
					C243.798,103.386,240.752,105.226,238.451,105.226z M240.005,96.636c-1.708,2.304-3.701,5.827-2.814,7.085
					c0.952,1.346,4.479-0.283,6.12-1.222L240.005,96.636z"/>
			</g>
		</g>
		<g>
			<g>
				<path class="st3" d="M257.164,104.468c-0.081,0-0.158-0.001-0.23-0.002l-2.591-0.002c-0.162,0-0.314-0.079-0.408-0.211
					c-0.094-0.133-0.117-0.303-0.062-0.456l4.263-12.001c0.092-0.257,0.374-0.393,0.634-0.305l3.733,1.288
					c0.7,0.316,2.444,1.108,1.859,2.808l-4.139,7.365C259.172,104.355,257.973,104.468,257.164,104.468z M255.051,103.463
					l1.897,0.002c0.759,0.014,1.624,0.023,2.439-1.061l4.065-7.227c0.146-0.449-0.006-0.874-1.321-1.472l-3.221-1.109
					L255.051,103.463z"/>
			</g>
		</g>
		<g>
			<g>
				<path class="st3" d="M265.503,104.92c-2.3,0-5.347-1.84-5.799-2.122c-0.228-0.141-0.304-0.437-0.172-0.67l3.919-6.949
					c0.082-0.145,0.23-0.24,0.396-0.253c0.163-0.011,0.327,0.058,0.431,0.188c0.519,0.653,5.016,6.452,3.302,8.878
					C267.103,104.668,266.354,104.92,265.503,104.92z M260.643,102.194c1.643,0.938,5.171,2.564,6.12,1.222
					c0.889-1.259-1.105-4.782-2.813-7.085L260.643,102.194z"/>
			</g>
		</g>
	</g>
</g>
<g id="candy">
	<g>
		<g>
			<g>
				<g>
					<path class="st6" d="M162.348,97.995c1.466-1.466,1.477-2.751,0.081-2.751c-1.301,0-4.13,2.403-4.506,2.728
						c-0.013-2.764-2.256-5-5.023-5h-9.804c-2.774,0-5.024,2.249-5.024,5.024c0,2.774,2.249,5.024,5.024,5.024h9.804
						c2.758,0,4.995-2.222,5.022-4.974c0.372,0.32,3.186,2.701,4.506,2.701C163.845,100.747,163.834,99.481,162.348,97.995z"/>
				</g>
			</g>
			<g>
				<g>
					<path class="st6" d="M133.606,97.995c-1.486,1.486-1.497,2.751-0.081,2.751c1.415,0,4.548-2.737,4.548-2.737
						s-3.153-2.765-4.548-2.765S132.14,96.53,133.606,97.995z"/>
				</g>
			</g>
		</g>
		<g id="shadow" class="st1">
			<g>
				<g>
					<path class="st2" d="M133.525,96.745c0.918,0,2.592,1.194,3.633,2.013c0.542-0.423,0.915-0.748,0.915-0.748
						s-3.153-2.765-4.548-2.765c-1.047,0-1.302,0.724-0.745,1.705C132.952,96.821,133.196,96.745,133.525,96.745z"/>
				</g>
			</g>
		</g>
		<g>
			<g>
				<polygon class="st0" points="146.113,103.019 142.169,103.019 145.859,92.969 149.804,92.969 				"/>
			</g>
		</g>
		<g>
			<g>
				<polygon class="st5" points="150.425,103.019 146.481,103.019 150.172,92.969 154.116,92.969 				"/>
			</g>
		</g>
		<g id="shadow_1_" class="st1">
			<g>
				<g>
					<path class="st2" d="M139.573,99.496c0-2.774,2.249-5.024,5.024-5.024h9.804c1.002,0,1.93,0.3,2.713,0.806
						c-0.894-1.384-2.443-2.306-4.213-2.306h-9.804c-2.774,0-5.024,2.249-5.024,5.024c0,1.772,0.922,3.322,2.308,4.216
						C139.875,101.428,139.573,100.498,139.573,99.496z"/>
				</g>
			</g>
		</g>
	</g>
	<g>
		<g>
			<g>
				<g>
					<path class="st3" d="M152.901,103.519h-9.804c-3.045,0-5.523-2.478-5.523-5.523s2.478-5.523,5.523-5.523h9.804
						c2.695,0,4.952,1.949,5.43,4.512c1.125-0.901,2.984-2.239,4.099-2.239c0.964,0,1.313,0.496,1.436,0.792
						c0.272,0.657-0.031,1.538-0.833,2.458c0.81,0.927,1.119,1.808,0.849,2.46c-0.123,0.296-0.474,0.792-1.452,0.792
						c-1.13,0-2.984-1.326-4.104-2.219C157.839,101.579,155.583,103.519,152.901,103.519z M143.097,93.472
						c-2.494,0-4.523,2.029-4.523,4.523s2.029,4.523,4.523,4.523h9.804c2.47,0,4.499-2.009,4.522-4.479c0-0.012,0-0.023,0.001-0.035
						c0-0.01-0.001-0.021-0.001-0.031c-0.011-2.483-2.041-4.502-4.523-4.502H143.097z M158.656,98.009
						c1.415,1.161,3.066,2.238,3.773,2.238c0.285,0,0.483-0.065,0.528-0.175c0.09-0.216-0.093-0.854-0.963-1.723
						c-0.094-0.094-0.146-0.221-0.146-0.354s0.053-0.26,0.146-0.354c0.861-0.861,1.038-1.502,0.947-1.723
						c-0.067-0.162-0.409-0.174-0.512-0.174C161.734,95.745,160.079,96.835,158.656,98.009z"/>
				</g>
			</g>
			<g>
				<g>
					<path class="st3" d="M133.525,101.247c-0.978,0-1.329-0.496-1.452-0.792c-0.27-0.652,0.039-1.533,0.849-2.46
						c-0.802-0.92-1.105-1.801-0.833-2.458c0.123-0.295,0.472-0.792,1.436-0.792c1.507,0,4.328,2.406,4.878,2.889
						c0.108,0.095,0.17,0.232,0.17,0.376s-0.062,0.281-0.171,0.376C138.067,98.679,135.083,101.247,133.525,101.247z
						 M133.525,95.745c-0.103,0-0.445,0.013-0.512,0.174c-0.091,0.221,0.085,0.861,0.947,1.723c0.094,0.094,0.146,0.221,0.146,0.354
						s-0.053,0.26-0.146,0.354c-0.87,0.87-1.052,1.507-0.963,1.723c0.045,0.109,0.243,0.175,0.528,0.175
						c0.79,0,2.573-1.25,3.775-2.238C136.091,97.01,134.301,95.745,133.525,95.745z"/>
				</g>
			</g>
		</g>
		<g>
			<g>
				<path class="st3" d="M146.266,103.419c-0.056,0-0.114-0.009-0.169-0.03c-0.26-0.094-0.395-0.38-0.301-0.64l3.588-9.951
					c0.093-0.26,0.381-0.396,0.64-0.301c0.26,0.094,0.395,0.38,0.301,0.64l-3.588,9.951
					C146.663,103.293,146.47,103.419,146.266,103.419z"/>
			</g>
		</g>
		<g>
			<g>
				<path class="st3" d="M142.018,103.419c-0.056,0-0.114-0.009-0.169-0.03c-0.26-0.094-0.395-0.38-0.301-0.64l3.588-9.951
					c0.093-0.26,0.381-0.396,0.64-0.301c0.26,0.094,0.395,0.38,0.301,0.64l-3.588,9.951
					C142.415,103.293,142.223,103.419,142.018,103.419z"/>
			</g>
		</g>
		<g>
			<g>
				<path class="st3" d="M150.514,103.519c-0.056,0-0.114-0.009-0.169-0.03c-0.26-0.094-0.395-0.38-0.301-0.64l3.502-9.712
					c0.093-0.26,0.381-0.395,0.64-0.301c0.26,0.094,0.395,0.38,0.301,0.64l-3.502,9.712
					C150.911,103.393,150.719,103.519,150.514,103.519z"/>
			</g>
		</g>
	</g>
</g>
<g id="muffin_2_">
	<g>
		<g>
			<path class="st5" d="M85.393,96.297c0-5.844,4.737-10.581,10.581-10.581c5.844,0,10.581,4.737,10.581,10.581H85.393z"/>
		</g>
	</g>
	<g id="light_17_" class="st1">
		<g>
			<path class="st2" d="M97.474,87.215c2.54,0,4.869,0.897,6.693,2.388c-1.94-2.372-4.889-3.888-8.193-3.888
				c-5.844,0-10.581,4.737-10.581,10.581h1.618C87.742,91.165,92.141,87.215,97.474,87.215z"/>
		</g>
	</g>
	<g>
		<g>
			<path class="st6" d="M95.974,97.723c0-2.182,1.769-3.951,3.951-3.951c2.182,0,4.264,1.769,4.264,3.951
				c0,0.139,0.003,0.277-0.011,0.412l0,0c0.015-0.13,0.036-0.261,0.066-0.391c0.432-1.906,2.328-3.1,4.234-2.668l-4.42,15.196
				H87.934l-4.457-15.178c1.902-0.446,3.807,0.734,4.253,2.636c0.032,0.135,0.054,0.27,0.07,0.404l0,0
				C87.786,98,87.79,97.862,87.79,97.723c0-2.182,2.052-3.951,4.234-3.951C94.206,93.772,95.974,95.541,95.974,97.723L95.974,97.723
				z"/>
		</g>
	</g>
	<g id="light_16_" class="st1">
		<g>
			<path class="st2" d="M87.73,99.231c0.032,0.135,0.054,0.27,0.07,0.404c-0.014-0.136-0.011-0.273-0.011-0.412
				c0-2.182,2.052-3.951,4.234-3.951c2.182,0,3.951,1.769,3.951,3.951c0-2.182,1.769-3.951,3.951-3.951
				c2.182,0,4.264,1.769,4.264,3.951c0,0.139,0.003,0.277-0.011,0.412c0.015-0.13,0.066-0.391,0.066-0.391v-1.5
				c-0.03,0.131-0.051,0.261-0.066,0.391c0.014-0.136,0.011-0.273,0.011-0.412c0-2.182-2.082-3.951-4.264-3.951
				c-2.182,0-3.951,1.769-3.951,3.951c0-2.182-1.769-3.951-3.951-3.951c-2.182,0-4.234,1.769-4.234,3.951
				c0,0.139-0.003,0.277,0.011,0.412c-0.016-0.134-0.038-0.269-0.07-0.404c-0.446-1.902-2.351-3.083-4.253-2.636l0.424,1.445
				C85.655,96.346,87.317,97.471,87.73,99.231z"/>
		</g>
	</g>
	<g>
		<g>
			<g>
				<circle cx="93.934" cy="89.804" r="0.5"/>
			</g>
		</g>
		<g>
			<g>
				<circle cx="91.123" cy="91.972" r="0.5"/>
			</g>
		</g>
		<g>
			<g>
				<circle cx="91.623" cy="89.304" r="0.5"/>
			</g>
		</g>
		<g>
			<g>
				<circle cx="95.974" cy="91.972" r="0.5"/>
			</g>
		</g>
		<g>
			<g>
				<circle class="st4" cx="98.79" cy="89.804" r="0.5"/>
			</g>
		</g>
		<g>
			<g>
				<circle class="st4" cx="96.474" cy="87.827" r="0.5"/>
			</g>
		</g>
		<g>
			<g>
				<circle cx="88.3" cy="92.472" r="0.5"/>
			</g>
		</g>
		<g>
			<g>
				<circle class="st4" cx="102.929" cy="91.972" r="0.5"/>
			</g>
		</g>
		<g>
			<g>
				<path class="st3" d="M85.399,95.681c-0.018,0-0.037-0.001-0.055-0.003c-0.274-0.03-0.473-0.277-0.442-0.552
					c0.622-5.65,5.383-9.911,11.076-9.911c5.691,0,10.452,4.259,11.076,9.907c0.03,0.274-0.168,0.521-0.442,0.552
					c-0.272,0.034-0.521-0.168-0.552-0.442c-0.567-5.14-4.901-9.016-10.082-9.016c-5.182,0-9.516,3.878-10.082,9.021
					C85.867,95.491,85.651,95.681,85.399,95.681z"/>
			</g>
		</g>
		<g>
			<g>
				<path class="st3" d="M95.996,110.773c-0.276,0-0.5-0.223-0.5-0.499l-0.021-12.55c0-0.276,0.223-0.5,0.499-0.501c0,0,0,0,0.001,0
					c0.276,0,0.5,0.223,0.5,0.499l0.021,12.55C96.496,110.548,96.273,110.772,95.996,110.773
					C95.996,110.773,95.996,110.773,95.996,110.773z"/>
			</g>
		</g>
		<g>
			<g>
				<path class="st3" d="M101.681,110.773c-0.033,0-0.067-0.003-0.101-0.01c-0.271-0.056-0.445-0.32-0.389-0.59l2.498-12.137
					c0.056-0.271,0.322-0.442,0.59-0.389c0.271,0.056,0.445,0.32,0.389,0.59l-2.498,12.137
					C102.121,110.61,101.913,110.773,101.681,110.773z"/>
			</g>
		</g>
		<g>
			<g>
				<path class="st3" d="M90.208,110.773c-0.234,0-0.443-0.165-0.49-0.403L87.31,98.233c-0.054-0.271,0.122-0.534,0.393-0.587
					c0.269-0.058,0.534,0.122,0.587,0.393l2.409,12.137c0.054,0.271-0.122,0.534-0.393,0.587
					C90.273,110.77,90.241,110.773,90.208,110.773z"/>
			</g>
		</g>
		<g>
			<g>
				<path class="st3" d="M104.058,110.773H87.934c-0.222,0-0.417-0.146-0.48-0.359l-4.457-15.178
					c-0.039-0.132-0.021-0.274,0.048-0.393c0.069-0.119,0.184-0.204,0.318-0.235c1.051-0.248,2.134-0.07,3.05,0.499
					c0.475,0.294,0.876,0.675,1.186,1.121c0.694-1.702,2.466-2.956,4.424-2.956c1.716,0,3.208,0.976,3.951,2.402
					c0.742-1.426,2.234-2.402,3.95-2.402c1.978,0,3.766,1.263,4.459,2.942c0.915-1.304,2.558-2,4.204-1.626
					c0.135,0.031,0.25,0.115,0.32,0.234c0.07,0.119,0.088,0.261,0.049,0.394l-4.42,15.197
					C104.475,110.626,104.28,110.773,104.058,110.773z M88.309,109.773h15.373l4.154-14.281c-1.459-0.075-2.774,0.907-3.104,2.363
					c-0.025,0.111-0.044,0.224-0.056,0.336c-0.03,0.274-0.281,0.475-0.551,0.441c-0.274-0.03-0.472-0.275-0.443-0.549
					c0.01-0.096,0.008-0.193,0.008-0.291c0-1.908-1.759-3.521-3.764-3.521c-1.902,0-3.45,1.548-3.45,3.451
					c0,0.276-0.224,0.5-0.5,0.5s-0.5-0.224-0.5-0.5c0-1.903-1.548-3.451-3.451-3.451c-1.989,0-3.734,1.612-3.734,3.451
					c0,0.168-0.002,0.265,0.008,0.361c0.029,0.273-0.169,0.519-0.442,0.549c-0.274,0.025-0.52-0.167-0.551-0.439
					c-0.014-0.116-0.033-0.231-0.06-0.347c-0.186-0.791-0.667-1.461-1.357-1.889c-0.537-0.332-1.15-0.487-1.768-0.452
					L88.309,109.773z"/>
			</g>
		</g>
	</g>
</g>
</svg>
